<svg id="corde" xmlns="http://www.w3.org/2000/svg" viewBox="0 0 889.55 460"><defs><style>.cls-1{fill:#b38a58;}</style></defs><path class="cls-1" d="M70.91,289.6c-.25-1.85-1.36-1-1.64-1.28C70.16,291.52,71.22,289.43,70.91,289.6Z"/><path class="cls-1" d="M89.79,308.78l-.63.22c1.23.27,2.44.44,3.64.64C91.8,309.36,90.8,309.11,89.79,308.78Z"/><path class="cls-1" d="M107.52,319.74c-.28-1.45-1.94-2.45-3.88-3.48-1-.51-2-1.06-3-1.6a11.44,11.44,0,0,1-1.14-.68,7,7,0,0,1-1.08-.82c-.08-.24-.16-.48-.26-.72l-2.25.72c.49.24,1,.47,1.53.7l1.52.68,1.39.66,1.68.95A31.37,31.37,0,0,1,107.52,319.74Z"/><path class="cls-1" d="M115.1,329.73c-.22-1.1,2.56.64-2.25-1.59a3.33,3.33,0,0,1,.33.43C113.6,328.79,114.16,329.13,115.1,329.73Z"/><path class="cls-1" d="M113.18,328.57c-2.05-1.11,1,1.36,0,0Z"/><path class="cls-1" d="M122.79,333.25c-1-.23-2-.5-3-.75.33.74,2.69,2.09,1.63,1.94C124.36,335.5,124,334.76,122.79,333.25Z"/><path class="cls-1" d="M126.05,333.14l-1.54-.42C124.66,333,125,333.28,126.05,333.14Z"/><path class="cls-1" d="M121.26,331.8c1.08.32,2.17.62,3.25.92-.23-.51,0-1.14-1.46-.47C123.58,331.8,122.72,332.06,121.26,331.8Z"/><path class="cls-1" d="M119.74,330.63c-1.28-1.21-3-2.53,0-1.72C114.52,326.38,114.5,328.12,119.74,330.63Z"/><path class="cls-1" d="M109.64,318.47c-.51-.58-1-1.14-1.52-1.73l-2-.47a7.54,7.54,0,0,1,2,1.44C108.88,318.31,109.52,318.79,109.64,318.47Z"/><path class="cls-1" d="M139.27,342.23c.36-.35-.43-1.51-.4-2.14l-2.22-.42C137.56,340.42,139.41,341.55,139.27,342.23Z"/><path class="cls-1" d="M138.87,340.09l3.32.59C139.55,339.44,138.91,339.55,138.87,340.09Z"/><path class="cls-1" d="M127.58,331.25c-1.85-.32-3.72-.63-5.58-1,2.18.51,4.35,1,6.52,1.43Z"/><polygon class="cls-1" points="150.75 347.17 148.65 347.44 152.29 347.23 150.75 347.17"/><path class="cls-1" d="M158.58,350.14c-1.62.29,1.23,2.08-.33,2a18.53,18.53,0,0,0,6.16.66A12.52,12.52,0,0,1,158.58,350.14Z"/><path class="cls-1" d="M167.5,353a23.27,23.27,0,0,0-3.09-.12A11.69,11.69,0,0,0,167.5,353Z"/><path class="cls-1" d="M147.22,343.08a3.64,3.64,0,0,0,1.86,2.19l-.68-1.68Z"/><path class="cls-1" d="M148.37,343.54l0,0,2.52,1.13Z"/><path class="cls-1" d="M146.93,343l.29.13C147.16,342.91,147.1,342.84,146.93,343Z"/><path class="cls-1" d="M134.86,336c2.06.17,6,1.07,2.94-1.49C136.18,334.72,138,336.22,134.86,336Z"/><path class="cls-1" d="M146.09,340.85,143,339.22c-.07.33.31,1-.71,1Z"/><polygon class="cls-1" points="147.8 341.13 146.09 340.85 147.22 341.45 147.8 341.13"/><path class="cls-1" d="M162.3,349.71a16.8,16.8,0,0,1,4.95,1.12,48.09,48.09,0,0,0-5.5-2.48C161.35,348.63,160.28,349,162.3,349.71Z"/><path class="cls-1" d="M155.52,346.64l.34.06C155.71,346.52,155.57,346.43,155.52,346.64Z"/><path class="cls-1" d="M184.55,356.83l-.21-.32c-.05.07-.08.13-.13.19Z"/><path class="cls-1" d="M161.53,348a5.06,5.06,0,0,0-3.19-.78c1.09.3,2.22.68,3.41,1.12C161.94,348.23,162,348.12,161.53,348Z"/><path class="cls-1" d="M172.53,354.11a25.72,25.72,0,0,0-2.21-1.53C170.9,353.21,172.16,354.33,172.53,354.11Z"/><path class="cls-1" d="M156.2,347.22l-.23,0C156.32,347.62,156.31,347.48,156.2,347.22Z"/><path class="cls-1" d="M156.2,347.22a10.22,10.22,0,0,0,2.14,0,19.89,19.89,0,0,0-2.48-.53A2.11,2.11,0,0,1,156.2,347.22Z"/><path class="cls-1" d="M192.27,350.64c-.59,1-4.65,1-7.42-1.32-3.4-.19-2.61,4.19-.51,7.19.26-.46.41-.9,3.88-.55-1-.95-6.74-3.78-3.67-3.9,4.47.82,3.39,1.52,5.29,2.79-1.33-2,6.11-.33,5.81-2.72l-4-.44C191.7,351.35,193.22,351.26,192.27,350.64Z"/><path class="cls-1" d="M178.16,354.33l-1.39-.31a16.77,16.77,0,0,1,4.14,3.08c2.42.19,3-.07,3.3-.4l-6.56-2.35Z"/><path class="cls-1" d="M170.77,351.91c1.49-.85,4.86-.24,3.37-2.25-3.92-1.3-3.1.07-5.61-.26,6.4,2-2.06,0,2.25,2.35a23.48,23.48,0,0,1-3.53-.92c1.08.58,2.11,1.17,3.07,1.75l-.12-.13h0c-.22-.25-.28-.37,0-.18,0,0,.11,0,.14,0a1.3,1.3,0,0,1,.45-.35c1.74.89.18.41-.45.35,0,.06-.11.1-.14.16l0,0,6.57,1.57A39.7,39.7,0,0,0,170.77,351.91Z"/><path class="cls-1" d="M142.16,333.4a.32.32,0,0,1,.08.36C142.69,333.78,142.88,333.75,142.16,333.4Z"/><path class="cls-1" d="M144.35,335.2a3.56,3.56,0,0,1-2.47-.46c-1.09-.91.25-.56.36-1-1-.07-3.4-.5-.94,1.28l.5,0c2.27,1.48,4.8,4.32,4.3,4.29A9.69,9.69,0,0,0,144.35,335.2Z"/><path class="cls-1" d="M157.66,343.5l5.4,1.47c-.75-.68-1.48-1.39-2.22-2.08l-.11.68C157.9,342.15,158.22,343.17,157.66,343.5Z"/><polygon class="cls-1" points="184.96 357.64 183.83 358.71 187.5 357.85 184.96 357.64"/><polygon class="cls-1" points="191.93 359.66 191.33 360.71 193.37 360.59 191.93 359.66"/><path class="cls-1" d="M581.82,329.85l1.25-1.05A9.09,9.09,0,0,0,581.82,329.85Z"/><path class="cls-1" d="M571.54,335.07v.65C571.88,335.2,572,334.89,571.54,335.07Z"/><path class="cls-1" d="M365.51,395.57c2.35,1.16,5,2.94,4.75,1.6l-.7-1.32A10.15,10.15,0,0,1,365.51,395.57Z"/><path class="cls-1" d="M485,374.86l-.76-.21L483,376.26Z"/><path class="cls-1" d="M485.22,369.23l3.18,0A15.82,15.82,0,0,0,485.22,369.23Z"/><path class="cls-1" d="M634.64,295.62l.75-2.15C633,295.15,634.45,295,634.64,295.62Z"/><path class="cls-1" d="M263.25,378.09a25.38,25.38,0,0,0,4.7,2C265.78,378.78,264.14,377.2,263.25,378.09Z"/><path class="cls-1" d="M584.16,344.23c.78-.68,1-1.11.88-1.36C584.23,343.55,583.83,344.05,584.16,344.23Z"/><path class="cls-1" d="M273.61,381.56c-.31-.22-.63-.37-.95-.57a24,24,0,0,1-4.71-.89A8.13,8.13,0,0,0,273.61,381.56Z"/><path class="cls-1" d="M791.26,130.39c.14-.11.27-.27.41-.36C791.55,129.9,791.42,130.09,791.26,130.39Z"/><path class="cls-1" d="M832.11,75.84c-.16.64-.55,1.64-.89,2.58A9.67,9.67,0,0,0,832.11,75.84Z"/><path class="cls-1" d="M219.77,368.14c-1.5-.3-.27.08,0,0Z"/><path class="cls-1" d="M213.94,361.24a.85.85,0,0,0,.75-.45A1.09,1.09,0,0,1,213.94,361.24Z"/><path class="cls-1" d="M290.31,377.42l.12,0C290.06,377.1,290.12,377.16,290.31,377.42Z"/><path class="cls-1" d="M217.7,367a13.59,13.59,0,0,0,1.79.88A15.33,15.33,0,0,0,217.7,367Z"/><path class="cls-1" d="M217.84,367.66l-1.26-.47C216.34,367.35,216.47,367.53,217.84,367.66Z"/><path class="cls-1" d="M221.85,368.62a16.75,16.75,0,0,1-2.36-.76c.27.16.37.26.28.28Z"/><path class="cls-1" d="M717.71,229.14A3,3,0,0,1,718,229C718.67,227.51,718.27,228.06,717.71,229.14Z"/><path class="cls-1" d="M404.94,381.66c-.07,0-.1.06-.17.07l.23,0Z"/><path class="cls-1" d="M410.23,380.35a5.39,5.39,0,0,1-5.23,1.42l2,3.66C408.1,383.79,409.17,382,410.23,380.35Z"/><path class="cls-1" d="M605.66,315.88l-3.82,1c2.88-4,6-5.17,2.15-4.73.42.94-.14,1.9-1.18,2.89a24,24,0,0,1-4.13,2.93c-3.11,1.9-6.23,3.8-5.45,5.7l-2.58.48c.64-.31.62-.58,1.25-.89-5.14.68-1.66,4.4-7.47,6.81-2.07.74-3.69.92-2.61-.19L578,333c-1.28.59-1.3-.2,0-.78l-3.19,1.87-3.24,1.76v-.13a33.79,33.79,0,0,1-3.24,3.86c-1.95.3.66-.8,0-1.05l-3.25,2.69c-2-.22.65-2.63,3.25-3.73-2.6-1-3.24-.4-4.3.64s-2.51,2.55-6.77,3.12l3.29-2c-3.23-1.08-5.61.9-10.14,1.35,1.22.28,9.42-.24,5.8,2.49a8.88,8.88,0,0,0-4.68,2.5c-.61-1.33-2.57,0-5.24,1.2l-.57-1.84c-2.69,1.7-2.08,2.51-3.47,4-3.33,1.17-4.56.06-5.79-.79-5.31,1.85,4.48.74-1.55,3.61-4.63,1-7.44,2.84-12.32,5.9-3.3.52.14-1.31-1.15-1.41-.73.82-1.47,1.64-2.22,2.42-.69.19-.63-.33-.6-.59-2.13,1.34.44,1.88-3.06,3.6-.16,1.16-2.3,1.07-4.85,1.14a20,20,0,0,0-4,.44,7.21,7.21,0,0,0-3.51,1.69c-1.29-.18.2-1.29-.37-1.89-5.82,3.37-5,2.69-9.64,6.27l-4.79,0c3.65.53-.07,3.27-3.43,5.59a30.8,30.8,0,0,0,3.25.8l-5.67,2.55c-.79-.12-.35-.92.42-1.95-.36.26-.71.51-1,.73-2.29-.14-1.45-1.5-.2-2.93.81.18,1.62.38,2.41.59,1.16-1.51,2.19-3.11,1.61-4.12a6.3,6.3,0,0,1-1.79,1c.3-.4.47-.74.25-.88s-.76.43-1.59,1.15l-1.85-1.72-.12.9c-2.64.28-5.32.35-8,.51-2.5,1.66-4.79,3.54-7.54,5.36a40.15,40.15,0,0,1-10.39,4.66c1.92-2,0-2.61-.2-4.46,2.76,1.45,6.68-2.07,11.28-2.64-2.4.33-2.06-.67-1.52-1.09l-7.77,3.3c-.1-1.53-1.94-.79-4.17-1,1.07,1.32-.36,2.12-2.46,2.73s-4.87,1-6.47,1.69c-.36-1,.28-2.11,4.37-2.49-4.81-1.55-5.25,4.37-9.95,3.15,1-.17,1.55-.1,1.87-.67a10.86,10.86,0,0,1-4.67,1c-1.57,0-2.71-.26-2.09-.77l1-.14a113,113,0,0,0-12.66,1.65c-4.31.72-7.9,1.74-8.3,3.06a12.9,12.9,0,0,1,1-3.69l-5.62,4.78c-1.9,1.55-3.82,3-5.76,4.58.93-2.24-3.35-7.26,2.09-8.76a14.63,14.63,0,0,0-6.86.43c1.09.26,2.84,3,1.36,3.31a17.16,17.16,0,0,0-3.63-1.66,29.28,29.28,0,0,1-4.3-1.44c1.63.45-.08,3.91-2.67,3.83.39-.51-.28-3.39.65-3.75L383,385.9c1.6-.63.27-2.86-1.15-3.8.33.32-1,.35-2.71.27a30.8,30.8,0,0,0-4.48-.09l2.69.85a9.8,9.8,0,0,0-7.21,2,14.82,14.82,0,0,1-2.95,1.63,9.73,9.73,0,0,1-1.9.5,11.76,11.76,0,0,1-2.39,0c.91-.64,2.33-4.16-1.27-4.8a51.6,51.6,0,0,1-5.4,4.66c-2.58,1.88-5.79,3.7-9.07,4L346,390l-5,.65a83.33,83.33,0,0,1,8-4.53l4.84-2.44c1.56-.76,3-1.42,4.18-1.88-2.63-.94-.67-1.21-4.68-1.36-1.35-1,2.28-1.27,3.45-1.25l-4.62-.57c-1.54-.23-3.07-.49-4.6-.73.24,2.05-7.29,1.33-7.12,3l10.31-1.12c.28,2-6.35,5.15-13,4.15-1.6-1,1.67-3.44,1.59-4.13-.93.68-6.41.54-6.95,0l2.92-.7c-3.55-1.23-6.33,1.86-10.47-.63-1.51-.31-4.11-3.31-4.56-2.15,2.09,2.68,1.52,9.81-.43,11.23-.53-.25-7.77-3.55-9.31-5-2.18-2.2,4.55-3.59,2.68-5.48-.19.52-1.69,1-2.3,1.08-1.51-.76,1-1.51-2.52-2-1,1.89-7-1.62-2,1.36-3.49-.12-3.5-1.15-7.47-1.89,1,1.55-4.54,3.7-8.06,3.37.32-.46-.29-1.3-.58-1.69-3.44-.94-6-1.87-8.55-2.75s-5-1.82-8.2-2.67c-.47-.63-3.43-2-1.89-2.52a8.81,8.81,0,0,1-4,.11c-3.41-2.7,4.5.87,2.09-1.94-.54,1.08-5.54.28-8.55.29.42,2,6.45,2,9.47,2-.62,2.45-6.2,3.76-13.2,3.21-5.5-.73-1.92-2.17-2.94-2-9.94-2.94-9.63,2.16-17.54-1.72-2.92-2.41.64-3.15.19-4.47,4.5.52,6.43,2.68,9.41,3.36l-3.46-1.65a12.36,12.36,0,0,1,6,1c-2.42-2.1-16.91-4.52-24.3-7.85-1.5.16-4,.08-3.06,1l2.5.43c1.92,1.85-5.06.52-2.12,1.93-3.52,0-7.59.4-12-1.58l-.38-2c0,.55,2.73,1.89,4.18,1.7-2.15.27-6.41-4.35-9.16-2.65l2.88,2.15c-3.54,0-8.17.67-12.11-1.13,1.35,2.29,1,.08,3.32,3-1.79-3.25,10.49,3.13,7.18-.71,2.33,3.24,4.9,2.46,8.28,5.56,0-.62-1.09-1.49,2.29-.27a3.41,3.41,0,0,1,.9-.31l.22.1-.17-.12c.17,0,.19-.06-.07,0a4.17,4.17,0,0,1-1.52-1.36c2.08-.88,7.55.61,9.59.4,2,.8-1,.45-.08,1.36l3.05-.33c-.07,1.38,4.89,3.58-.14,3.1l4.33,1.17a18.77,18.77,0,0,0,8.13,2.56c2,.79,5.54-.15,3.5.42l7,.9,0,.34c6.67,1.83,14.34,1.29,21.36,5.61a32.36,32.36,0,0,1,8.43,1.8l.46,1.31c3.06.34,8.64,3.33,10.19,2.46,1.24,2,4.87,2.82,8.79,3.5,2,.33,4,.6,5.88.88a39.49,39.49,0,0,1,4.9.85l.47-1.47a46.64,46.64,0,0,0,5.53.72c1.93.13,4,.29,6.27.25l-.08-1.37c2-.28,4.49.28,7.23,1a45.34,45.34,0,0,0,8.88,1.83c-.48.47-2,.18-3.12-.23,3.54,1.86,7.53,1.69,11.41,1.4l2.88-.21c1-.09,1.9-.16,2.82-.17a13.79,13.79,0,0,1,5.26.82,6.76,6.76,0,0,1,4.07.26,1.43,1.43,0,0,0-.42,0,5.92,5.92,0,0,0,.69.06c.73.27,1.49.61,2.31.84a11.17,11.17,0,0,0-1.94-.82,28.66,28.66,0,0,0,5.21-.36l.78,1.46.45,0c1.88.58,1.54-.65.56-1.76a12.07,12.07,0,0,0,2.56-.81c1.49,2.36,5-.64,7.12,1.84,1.3-1.22,9.68-1,10.64-3.59.07.33.64.48-.39.52a29,29,0,0,0,3.18.27,7.6,7.6,0,0,0,3-.59l1,1.8,4.55-2.69c2.88,1,4.11,1.57,1.36,3.12,6.68-2.48,5.48-1.13,11.08-3.73l-.19,1.21c2.06-.22,5.2-2.08,6.53-1.2a15.14,15.14,0,0,0,5.78.42c2.55-.13,5.62-.46,8.91-.82,1.65-.16,3.35-.43,5.06-.66s3.45-.46,5.17-.65c3.44-.37,6.82-.6,9.83-.68-2.89-3,5.72.51,5.69-2.24.83.68,2.56.83.8,1.89a41.73,41.73,0,0,1,7.25-1.4,9.81,9.81,0,0,0,5.59-2.32c.86.66-1,1.47-.29,1.81.44-.28,1.73-1.12,2.46-.78s-.72.87-1.58,1.43c6.07-1.49,6.07-4.13,5.93-6.58,3.29.31,4.78-.24,6.56-2.33,1.25.49,3.23.82-.42,2.06,1.06-.22,4.33-.77,7.3-1.52s5.59-1.85,5.42-2.8c.79.28,2.94-.72,3.42-1.09a70.49,70.49,0,0,0,9.59-2.9l-1.35.12c1.07-2.8,3.58-1.74,7.13-3.22l0,.26a28.46,28.46,0,0,0,4.4-.84,7,7,0,0,0,1.67-.77c.82-.49,1.63-.94,6-1.56l-.94-1.18c-.35-3.19,7.86-.89,12.06-4l-2-.07c2.12-2,8.69,1,11.43.28.67,0-.72.76-1.42,1.26,3.73-.53,3.75-1.09,3.46-1.78s-.91-1.55,1.46-2.86c1.32.52-.14,2.9,3.27,1.57,2,0,8.32-7.26,13.56-7.76-1.33-.23-2.63-.46-.64-2.09,3.31-1.93,10.69-1.87,12.6-5.77.53,0,.79.06.9.22,2.3-1.94,8-5.38,8.84-7.41,2.37,1.5,6.06-1.3,9.39-3.95a42.31,42.31,0,0,1,4.53-3.35c1.28-.75,2.3-.91,2.88.08l7.57-4.94,0,.52a28.58,28.58,0,0,0,3.14-1.94,16,16,0,0,0,2-1.79,14.42,14.42,0,0,0,2.13-3.17c1.28-.47.7.42.74.68a41.81,41.81,0,0,0,7.49-4.42c1.67-1.36,2.91-3.05,5.14-6l1.46.79c.53-.9,3.35-2.18,6.77-4a38.35,38.35,0,0,0,10.09-7.57,1.28,1.28,0,0,1-.33,1.07,32.62,32.62,0,0,1,5.83-4.67c2.15-1.44,4.43-2.75,6.5-4.05a27.46,27.46,0,0,0,5.21-3.9,5.33,5.33,0,0,0,1.74-4.4l3.79-5c-6.28,4.81-.63-2.55-3.68-1.13,2.14-2.24,7.16-4,4.44-1.28l-.63.19c.39,1.52,2.42.12,4.49-1.47s4.1-3.47,4.67-2.68c2.86-2.64,5.78-5.2,8.72-7.69l8.63-7.57,4.28-3.73c1.42-1.24,2.77-2.54,4.14-3.81,2.72-2.56,5.39-5.12,8-7.72l-2.76-.31c1.22-1.19,2.44-2.37,3.62-3.59,1.28-.62,2.47-.13-.08,2.46,2.21-.54,3.41-5.16,3.13-5.56,5.51-4.58,0,3.77,1.5,2.22l1.91-2.27-.65.31c1-2.37.42-3.18,3.45-6.32,2.19-1.74,2-.13,2.75-.88.11.11.42-.11,1.16-1.2l4.43-4.66-3,.76c1.27-2.68,4.08-4.44.65-3.53,1.29-.3,3-1.55,4.79-3.25a70.47,70.47,0,0,0,5.67-6.07c3.78-4.37,7.08-8.85,8.31-9.56,1.54-3.89,4-6.91,7.16-10.63-1,.72-3,.08-.23-3.06,1.11,1.84,2.64.6,4.44-1.22s3.81-4.24,6-4.72c-1.69.63,0-1.81,1.52-4.17s2.73-4.6.22-3.49c2.34-2.62,1.34.72,3.68-.86,3.66-7.65,11.6-14.34,16.88-23.28-.35-.43-2,.56-1.4-1.71,1.75-1,3.45-2.07,5.19-3.11.9-1.86-1.53-3.23,2-5.36-.66.2-1.65.5-1-.74a102.42,102.42,0,0,0,8.76-12.56l2-3.32c.65-1.12,1.29-2.36,1.93-3.53s1.18-2.41,1.78-3.62l1.64-3.65c4.22-9.74,7.62-19.62,13.46-28.15-1.91,2.18-1.37.44-.66-1.51-.72,1.17-1.21-.49-2-.5,1.63-2.39,3.26-4.75,5-7-.6-1.05.16-3,1-4.88s1.76-3.63,1.3-4.54l-7.23-.58c.12.19.2.23.28.25l-.13-.3,6.93.56-.78,2.33c-.25-2.05-1.89-1.53-3.81-.62s-4,2.22-5.21,1.4c.34,2.4-1.56,4.49-3.43,7s-3.68,5.4-3.12,9.13c-1.06,1.17-.43-1.49-1.33-1,.57,2,.11,4-1.71,7.29l-.14-.5a73.21,73.21,0,0,1-5,11.7C810,101.53,808,105,805,109.63c.55,0,1.09,0,1.64,0a11,11,0,0,1-2.82,3c.1.89.37,1,.75.62a9.46,9.46,0,0,0,1.25-1.78c.92-1.44,1.76-3,2.24-1.32A8.19,8.19,0,0,0,805,113c-1.09,1.47-2.26,3.34-3.39,5.17-2.26,3.66-4.61,7.1-6.58,7.19-2.07,3.26,2-.09-.08,3.18l-1.3.39.44,1.44c-1.55,2-3.17,2.49-3.86,2.16a13.2,13.2,0,0,0,1.08-2.16c-2.65,2.18-4.74,7.94-5.68,8.67l2.52-2.77c-5.11,9.27-13.45,19.13-18.08,28.38l1-.23c-3.64,7-4.33,4.56-9.06,11.72l.07-.34a16.63,16.63,0,0,1-3.19,5.57c.72-2.19-3.71,2.25-2.64-.52-4.24,7.43-1.79,3.91-3.37,9.84l-1.68.29c-.44,2.11-.13,2.57-2.65,6.06,1.51-3.32-3,1-1.5-2.82-7.6,5.31-6.76,11.77-12.17,12.54-.39,5.14,6.41-4.73,5.39-2.56,2-.81-.51,4.08-2.61,6-1.94,2.14-6.19,1.06-11,6.46.49-.52.35-.71.84-1.24-2.39,1.48-2.79,4.62-6,6.2.12,2.64-3,3.07-1.64,5.09,1.38-1.74,2.76-3.48,4.11-5.24-1,1.6-1.65,3.52-2.67,5.48a14.44,14.44,0,0,1-5.06,5.76,13.37,13.37,0,0,1,1.43-3.6c-1.74.85-2.08,2.84-3.91,3.68-.67-1,.66-2.52,2.29-4.34s3.61-3.92,4.32-6c-2.06.73-3.94,6.72-4.43,3.48.41,4.4-5.21,4.81-6.81,10l-.79-1.22a12.75,12.75,0,0,1-2,3.31l.48-3.13a9.2,9.2,0,0,1-4,4.11c-1.61,1-3.34,1.92-4.38,3.54,5.64-5.51,2.49,0,5.6-1.61-5.68,8.18-6.64,1.25-14,9.3.92-1.17,4.57-3.22,3.37-1.14-1.69,1.23-4,2.73-5.51,3-5.14,5.06,1.81.33.13,3-3,.37-2.15,2.9-4.14,5.45l-1-1.06c-3.36,2.43-3.26,3.36-3.11,4.2s.36,1.61-2.84,3.6l1.07-3.55-2.61,2.9L675,265c-2.39,3.65-3.6,4.27-7,6.59,1.37.14,1.3,2.4-1.51,4.74-2.5.9.21-1.93-3.7,1.47.35-1.44.62-3.11,3.22-3.49-.11-.5.31-1.44.19-1.95-2.68.95-5.37,4-6.82,5.23a7,7,0,0,1,1.79-1l-4.6,6.26c-1.25.31-.79-.62-.33-1.54-1.1,1.06-1.48,2.29-3.19,3.72-.26-1.28-1.09-2.13,1-4.54-1.56,1.85-3.22,3.59-4.85,5.37-.69-.12-3.76,1.08-3.29.17-1.78.91-3.36,2.82-5.1,4.81a19.94,19.94,0,0,1-6.11,5.09,4.11,4.11,0,0,1-1.22,1.62c-2.09,1.3-4.23,2.29-6.33,3.53a22.23,22.23,0,0,0-6.22,4.89L617,306c-3.55,2.91,5.19-.24-.74,4.62-4.19,3.47-2.67-.44-4.58.07-1.7,2.29-4.56,6.58-9.66,7.7C603.18,317.22,604.43,316.81,605.66,315.88ZM556.29,343c.87-.72,2.46-2.46,3.55-2C559.4,343,558.19,342.71,556.29,343Zm-80.12,31.15c.68-.65,2-.67,3.49-.49A8.2,8.2,0,0,1,476.17,374.18Zm-239.91-3,.13,0C238.66,372.3,237.86,371.87,236.26,371.19Zm-4.84-1.88c-.55.07-.57.27-.41.52.44-.27,1.57,0,2.82.42C233.57,369.79,233,369.38,231.42,369.31ZM735.88,223.84l-1,.49C736.14,222.37,736,223.09,735.88,223.84Z"/><path class="cls-1" d="M485.16,369.89a1.37,1.37,0,0,1,.66.64C486.17,370.19,486.11,369.91,485.16,369.89Z"/><path class="cls-1" d="M634.5,296l.15-.09a.54.54,0,0,0,0-.31Z"/><path class="cls-1" d="M311.35,376.09a5,5,0,0,1,1.85,1.07C313.32,376.82,312.91,376.44,311.35,376.09Z"/><path class="cls-1" d="M204.3,364.58l3.3.55a7.11,7.11,0,0,1-2.75-1.28C204.83,364.2,205.31,364.84,204.3,364.58Z"/><path class="cls-1" d="M179.49,347.5c-.51,0-1-.32-1.47-.3l-.1.68C179.87,348.52,181.41,348.43,179.49,347.5Z"/><path class="cls-1" d="M202.67,359.11c.08-1.23-2-1.42-4.3-1.87a2.91,2.91,0,0,1,.39.12C197.62,358.79,200.15,359,202.67,359.11Z"/><path class="cls-1" d="M197.84,357.13a12.83,12.83,0,0,1-2.06-.59C195.32,357.12,196.57,356.93,197.84,357.13Z"/><path class="cls-1" d="M224.88,368.46c-1-.58-1.06,1.33-1.54.69C221.77,370.35,230.91,369.17,224.88,368.46Z"/><polygon class="cls-1" points="201.99 354.74 202.37 356.42 203.95 355.61 201.99 354.74"/><path class="cls-1" d="M219.23,360.7l-3.45-1.37c0,.26-.5.28-1.08.23C216.87,360.22,219.2,361.15,219.23,360.7Z"/><path class="cls-1" d="M214.7,359.56a9.34,9.34,0,0,0-2.93-.54A19.37,19.37,0,0,0,214.7,359.56Z"/><polygon class="cls-1" points="206.96 355.69 207.92 356.29 210.38 357.11 206.96 355.69"/><path class="cls-1" d="M257.53,370.75l4,.56c.52-.4-.46-1-2-1.14C258.55,370.29,257.05,370.12,257.53,370.75Z"/><path class="cls-1" d="M246.74,363.81c1,.57,1,.91,1.44,1.54l.57-1.78Z"/><path class="cls-1" d="M258.21,366.23c.52-.41,6,0,1.05-1.15C258.74,365.48,254.73,364.92,258.21,366.23Z"/><polygon class="cls-1" points="316.54 382.15 315.53 382 315.16 385.04 316.54 382.15"/><path class="cls-1" d="M369.71,380.08c-4.63-.86-1.18,1.91-5.36.81-.57.32.29.56,1.14.79s1.71.37,1.13.67C369.48,381.66,370.94,382.12,369.71,380.08Z"/><path class="cls-1" d="M366.62,382.35c-.46.11-.94.26-1.46.42A5.06,5.06,0,0,0,366.62,382.35Z"/><path class="cls-1" d="M837.85,66.54c.59-.79,1.21-1.54,1.82-2.3l-1.74,1.21C837.9,65.81,837.87,66.17,837.85,66.54Z"/><path class="cls-1" d="M829.08,63.44,827.66,65l1.24.52a2.22,2.22,0,0,1,.32.14l.09,0a.39.39,0,0,1,.14.15l0,0h0s0,0,.08.13l.19.29a5.68,5.68,0,0,0,.62.77,5.46,5.46,0,0,0,1.3,1,5.8,5.8,0,0,0,8.57-3.87,5.53,5.53,0,0,0,.11-1.58,5.32,5.32,0,0,0-.15-.95l-.09-.32-.06-.18,0-.13-.1-.25-.12-.24h0l0,0a.31.31,0,0,0-.1-.08,5.17,5.17,0,0,0-.62-.26l.16.26.11.16.07.14a3.64,3.64,0,0,1,.21.48l0,.09.08.24a6.31,6.31,0,0,1,.16.77,5.15,5.15,0,0,1-.05,1.76c.47.74-2.57,5.08-6,4.24a5,5,0,0,1-3-1.56,4.6,4.6,0,0,1-.5-.61,3.7,3.7,0,0,1-.28-.43l-.08-.13-.07-.13c-.17-.29-.29-.49-.41-.74A2.22,2.22,0,0,1,829.08,63.44Z"/><path class="cls-1" d="M547.08,342.87l0,.52c.62.27,1.28,0,2.6-.48Z"/><polygon class="cls-1" points="584.27 326.39 583.64 326.69 585.63 327.62 584.27 326.39"/><path class="cls-1" d="M612.57,307.19c-1.22.68-2.41,1.86-3.64,2.53C611.35,307.87,614.07,308.85,612.57,307.19Z"/></svg>