<svg id="corde" xmlns="http://www.w3.org/2000/svg" viewBox="0 0 885.5 581.23"><defs><style>.cls-1{fill:#b38a58;}</style></defs><path class="cls-1" d="M.9,332.43c-.49-1.61-1.46-.62-1.76-.78C.41,334.22,1.18,332.25.9,332.43Z"/><path class="cls-1" d="M16.44,355.35l-.7-.08c1.12.85,2.29,1.62,3.42,2.42C18.26,356.92,17.33,356.15,16.44,355.35Z"/><path class="cls-1" d="M32.71,374c0-3.15-6.23-6.16-8.64-10l-.12-.87c-.87-.11-1.75-.23-2.62-.37C25.13,366.77,30.66,370.91,32.71,374Z"/><path class="cls-1" d="M38.34,386.76c0-1.17,2.49,1.56-1.93-2.4a5.21,5.21,0,0,1,.23.55C37,385.29,37.52,385.82,38.34,386.76Z"/><path class="cls-1" d="M36.64,384.91c-1.85-1.84.67,1.71,0,0Z"/><path class="cls-1" d="M45.38,393.17l-2.94-1.91c.15.86,2.22,3.11,1.17,2.55C46.38,396,46.21,395.16,45.38,393.17Z"/><path class="cls-1" d="M48.78,394.35l-1.48-1C47.37,393.7,47.66,394.08,48.78,394.35Z"/><path class="cls-1" d="M44.18,391.13l3.12,2.2c-.11-.59.34-1.12-1.39-1.05C46.57,392.05,45.62,392,44.18,391.13Z"/><path class="cls-1" d="M42.91,389.39c-1-1.69-2.54-3.65.4-1.74-2.4-2.21-3.67-2.93-3.78-2.49S40.49,387.18,42.91,389.39Z"/><path class="cls-1" d="M35.19,373.45l-1.27-2.28-2-1.12C32.9,370.61,34.8,374,35.19,373.45Z"/><path class="cls-1" d="M60,408.78c.46-.19,0-1.67.18-2.27L58,405.17C58.74,406.29,60.37,408.17,60,408.78Z"/><path class="cls-1" d="M60.22,406.51l3.31,2C61.11,406.14,60.4,406,60.22,406.51Z"/><path class="cls-1" d="M50.89,393.09c-1.87-1-3.7-2.13-5.54-3.21,2.11,1.37,4.25,2.71,6.4,4Z"/><polygon class="cls-1" points="70.82 418.51 68.49 417.89 72.45 419.2 70.82 418.51"/><path class="cls-1" d="M78.29,424.61c-1.79-.35.74,2.54-.9,1.87a23.43,23.43,0,0,0,6.33,3.14A16.46,16.46,0,0,1,78.29,424.61Z"/><path class="cls-1" d="M87,431a30.69,30.69,0,0,0-3.25-1.35A14.44,14.44,0,0,0,87,431Z"/><path class="cls-1" d="M68.17,413a4.47,4.47,0,0,0,1.37,3L69.27,414Z"/><path class="cls-1" d="M69.26,413.91V414l2.37,2.17C71.34,415.88,70.61,415.21,69.26,413.91Z"/><path class="cls-1" d="M67.9,412.72l.27.25C68.15,412.78,68.11,412.69,67.9,412.72Z"/><path class="cls-1" d="M57.18,400.78c2.09,1,6,3.6,3.48-.25C58.91,400.08,60.33,402.29,57.18,400.78Z"/><path class="cls-1" d="M67.59,410.29c-.94-1-1.87-1.92-2.78-2.9-.17.31,0,1.16-1,.68C65.05,408.83,66.31,409.57,67.59,410.29Z"/><polygon class="cls-1" points="69.32 411.29 67.59 410.29 68.63 411.36 69.32 411.29"/><path class="cls-1" d="M82.34,425.71a22.3,22.3,0,0,1,5,3.09c-1.64-1.65-3.42-3.22-5.16-4.67C81.63,424.24,80.41,424.16,82.34,425.71Z"/><path class="cls-1" d="M76,420l.34.19C76.23,419.9,76.11,419.75,76,420Z"/><path class="cls-1" d="M104.14,441.58c0-.13-.08-.26-.14-.39l-.19.13Z"/><path class="cls-1" d="M82,423.7a6.6,6.6,0,0,0-3.17-2c1.07.73,2.18,1.54,3.31,2.47C82.36,424.08,82.46,424,82,423.7Z"/><path class="cls-1" d="M92,434.14c-.55-.76-1.22-1.57-1.94-2.39C90.51,432.61,91.55,434.21,92,434.14Z"/><path class="cls-1" d="M76.55,420.79l-.23-.12C76.57,421.25,76.61,421.09,76.55,420.79Z"/><path class="cls-1" d="M76.55,420.79a12.75,12.75,0,0,0,2.27.87,26.94,26.94,0,0,0-2.48-1.52A3.06,3.06,0,0,1,76.55,420.79Z"/><path class="cls-1" d="M114.08,438.52c-.46.41-1.77.2-3.27-.52a12.41,12.41,0,0,1-4.35-3.65c-3.6-1.51-3.93,3.09-2.46,6.84.4-.35.69-.73,4.31,1-.76-1.34-6.24-6.35-2.9-5.28,4.6,2.55,3.21,2.86,4.94,4.82-.91-2.44,6.69,2,7-.45l-4.17-1.95C113.28,439,114.94,439.49,114.08,438.52Z"/><path class="cls-1" d="M98,436.61l-1.4-.86a22,22,0,0,1,3.58,4.68c2.56,1.13,3.28,1.11,3.66.89-2.16-1.6-4.28-3.25-6.4-4.91Z"/><path class="cls-1" d="M90.74,431.27c1.81-.23,5.23,1.73,4.19-.85-3.81-2.85-3.32-1.18-5.9-2.52,6.28,4.51-2.21-.79,1.75,3.22a31.07,31.07,0,0,1-3.49-2.32c1,1,1.92,2,2.78,2.95l-.09-.18,0,0h0c-.16-.33-.19-.47.05-.17a.74.74,0,0,1,.15.08,1.16,1.16,0,0,1,.57-.17c1.61,1.59.08.48-.57.17-.06,0-.15,0-.2.09l0,0c2.2,1.39,4.36,2.83,6.59,4.18A63.24,63.24,0,0,0,90.74,431.27Z"/><path class="cls-1" d="M65.55,401.28c.09.25,0,.31,0,.39C66,401.89,66.2,401.94,65.55,401.28Z"/><path class="cls-1" d="M67.33,404a4.74,4.74,0,0,1-2.46-1.5c-.89-1.35.42-.45.65-.82-1-.49-3.44-1.91-1.35.87l.52.24c2,2.43,3.83,6.29,3.32,6.05A10.94,10.94,0,0,0,67.33,404Z"/><path class="cls-1" d="M79.1,417.72l5.33,3.61-1.79-2.94-.3.62C79.71,416.48,79.78,417.61,79.1,417.72Z"/><polygon class="cls-1" points="104.37 442.53 102.88 443.14 107.04 443.76 104.37 442.53"/><polygon class="cls-1" points="111.37 447.24 110.44 448.04 112.68 448.71 111.37 447.24"/><path class="cls-1" d="M549.51,473.3l1.45-1.18A11.77,11.77,0,0,0,549.51,473.3Z"/><path class="cls-1" d="M537.68,479.5l0,.68C538.06,479.6,538.18,479.27,537.68,479.5Z"/><path class="cls-1" d="M297.84,531.84c2.45,1.71,5.15,4.1,5.11,2.72l-.56-1.46A13.82,13.82,0,0,1,297.84,531.84Z"/><path class="cls-1" d="M437.31,524.24l-.86-.22-1.53,1.6Z"/><path class="cls-1" d="M438,518.56h3.63A20.62,20.62,0,0,0,438,518.56Z"/><path class="cls-1" d="M611.33,433.89l1.1-2.28C609.58,433.45,611.2,433.2,611.33,433.89Z"/><path class="cls-1" d="M185.83,489.54a33.73,33.73,0,0,0,5,3.29C188.57,490.91,187,488.9,185.83,489.54Z"/><path class="cls-1" d="M551.4,488c.91-.74,1.22-1.21,1.05-1.45C551.51,487.29,551,487.82,551.4,488Z"/><path class="cls-1" d="M197,495.78c-.33-.3-.67-.53-1-.81a29.4,29.4,0,0,1-5.2-2.14A10.67,10.67,0,0,0,197,495.78Z"/><path class="cls-1" d="M787.57,243.24c.13-.15.25-.35.39-.48C787.82,242.64,787.7,242.87,787.57,243.24Z"/><path class="cls-1" d="M824.1,173.33c0,.39-.09.91-.17,1.47l-.35,1.77A11.15,11.15,0,0,0,824.1,173.33Z"/><path class="cls-1" d="M139.65,465.69c-1.57-.83-.31,0,0,0Z"/><path class="cls-1" d="M134.92,456.87c.4.07.74.06.93-.18A1.18,1.18,0,0,1,134.92,456.87Z"/><path class="cls-1" d="M216.37,495.62l.14.06C216.13,495.24,216.2,495.32,216.37,495.62Z"/><path class="cls-1" d="M137.66,463.83a18.73,18.73,0,0,0,1.75,1.48A18.93,18.93,0,0,0,137.66,463.83Z"/><path class="cls-1" d="M137.65,464.54l-1.27-.9C136.08,463.71,136.18,463.93,137.65,464.54Z"/><path class="cls-1" d="M141.81,466.89a23.19,23.19,0,0,1-2.4-1.58c.26.25.35.39.24.38Z"/><path class="cls-1" d="M710.41,361.19a3.65,3.65,0,0,1,.34-.18C711.59,359.38,711.12,360,710.41,361.19Z"/><path class="cls-1" d="M345.07,525.7l-.2,0,.25.06Z"/><path class="cls-1" d="M351.28,525.11a7.25,7.25,0,0,1-6.16.7l1.78,3.87Q349.12,527.4,351.28,525.11Z"/><path class="cls-1" d="M577,456.87l-4.32,1.31c3.47-4.42,7-5.85,2.7-5.1,1.64,3.85-14.22,9.12-12.72,12.88l-2.93.69c.74-.38.73-.65,1.46-1-2.91.55-3.44,1.7-4.07,3.11s-1.36,3.07-4.67,4.55c-2.36.94-4.18,1.26-2.91,0-1.48,1.19-3,2.41-4.45,3.56-1.48.69-1.46-.12,0-.81l-7.41,4.26v-.13a41.1,41.1,0,0,1-3.84,4.22c-2.21.45.78-.87,0-1.08l-3.8,3c-2.19-.08.87-2.76,3.85-4.09-5.76-1.68-3,2.74-12.67,4.68l3.8-2.38c-3.59-.87-6.33,1.45-11.5,2.16.69.09,3.36-.09,5.32,0s3.22.58,1.12,2.15a12.13,12.13,0,0,0-5.41,2.87c-.63-1.32-2.92.15-6,1.56l-.55-1.85c-3.12,1.94-2.48,2.72-4.11,4.36-3.82,1.44-5.18.34-6.53-.46-6.13,2.13,5.06.54-1.94,3.74a29.56,29.56,0,0,0-3.65,1.16c-1.14.43-2.23.9-3.33,1.44-2.19,1.07-4.41,2.48-7.28,4.09-3.81.62.23-1.33-1.24-1.4l-2.66,2.55c-.79.24-.69-.29-.64-.56-2.49,1.48.41,1.92-3.66,3.83-.24,1.19-2.68,1.16-5.6,1.33s-6.34.43-8.64,2.38c-1.46-.14.3-1.32-.31-1.91-3.39,1.84-4.89,2.51-6.2,3.23s-2.43,1.46-5.18,3.29l-5.46,0c4.13.48-.3,3.33-4.3,5.69A31.86,31.86,0,0,0,441,525c-2.21.91-4.44,1.72-6.68,2.54-.91-.13-.34-.92.62-1.94-.44.25-.85.5-1.17.71-2.62-.17-1.56-1.52,0-2.94.92.19,1.83.41,2.73.63,1.45-1.48,2.72-3.15,2.12-4.15a7.25,7.25,0,0,1-2.11,1c.37-.41.59-.74.34-.89s-.89.42-1.9,1.14l-2-1.77-.2.91-4.57.29c-1.53.08-3.06.11-4.58.17-1.49.82-2.93,1.7-4.4,2.6s-3,1.72-4.66,2.58a48.4,48.4,0,0,1-5.47,2.43,54.58,54.58,0,0,1-6.85,1.9c2.39-1.88.25-2.61.18-4.47,1.51.8,3.48.34,5.72-.35s4.74-1.73,7.41-1.92c-2.78.22-2.31-.75-1.66-1.16L409.27,524l-4.6,1.48c0-1.54-2.15-.88-4.68-1.2,2.21,2.79-6.85,2.71-10.65,3.91-.32-1,.54-2,5.25-2.26-2.69-.87-4.28.17-5.88,1.18s-3.22,2.1-5.84,1.31c1.16-.1,1.79,0,2.22-.53-2.65,1.14-9.3.6-7.77-.32l1.15-.06c-1.92,0-4.33,0-6.89.1s-5.27.12-7.78.31c-5,.25-9.25.82-9.89,2.09a12,12,0,0,1,1.62-3.55c-2.32,1.39-4.67,2.61-7.06,3.92s-4.82,2.58-7.27,3.76c1.39-2.08-2.74-7.7,3.67-8.35a19.27,19.27,0,0,0-7.86-.64c1.19.42,2.77,3.44,1.05,3.48a27,27,0,0,0-3.89-2.24c-.9-.4-1.95-.77-4.66-2.17,1.78.7-.71,3.85-3.66,3.36.53-.45.25-3.39,1.36-3.61-2.57.78-5.15,1.46-7.77,2.19,1.92-.31.78-2.77-.66-4,.62.84-6.18-1.22-8.15-1.28l2.89,1.37a13.19,13.19,0,0,0-8.51.44,13,13,0,0,1-8.58.43c1.15-.41,3.42-3.52-.5-5a58.29,58.29,0,0,1-7,3.26,25.28,25.28,0,0,1-11,1.64l-1.08-1.36-5.77-.64A153.7,153.7,0,0,1,292,516.61c-2.77-1.56-.51-1.3-5-2.54-1.32-1.36,2.83-.6,4.14-.31L281,510.13c-.13,2.09-8.51-.56-8.63,1.17,4,.52,7.92,1.06,11.89,1.48-.06,1-2.1,1.92-5.06,2.23a25,25,0,0,1-10.44-1.42c-1.63-1.37,2.51-3,2.56-3.66-1.17.4-7.35-1.06-7.87-1.74l3.44,0c-3.81-2.08-7.51.33-11.73-3.25-1.64-.72-4.11-4.22-4.81-3.2,1.93,3.13.08,10-2.37,11-.57-.32-8.12-5.4-9.63-7.17-2.1-2.72,5.69-2.45,3.89-4.78-.29.47-2.05.53-2.77.5-1.57-1.13,1.34-1.3-2.53-2.57-1.38,1.65-7.63-3.23-2.42.89-3.92-.95-3.8-1.92-8.14-3.66.88,1.79-5.62,2.54-9.56,1.48.42-.38-.14-1.37-.42-1.82-3.72-1.76-6.51-3.25-9.2-4.77s-5.34-3-8.8-4.63c-.42-.76-3.48-2.9-1.69-3a11.39,11.39,0,0,1-4.5-.95c-3.32-3.57,4.85,2,2.65-1.38-.78.94-6.2-1.16-9.51-2,.05,1.05,1.74,2,3.84,2.8a59.52,59.52,0,0,0,6.3,1.75c-1.07,2.28-7.55,2.18-15.26-.45-6-2.33-1.73-2.71-2.88-2.89-5.21-3-8-3.21-10.48-3.46s-4.64-.61-8.58-3.81c-2.7-3.32,1.4-2.89,1.19-4.33,4.85,1.95,6.49,4.75,9.64,6.34-1.17-.88-2.3-1.82-3.45-2.73A17.29,17.29,0,0,1,172,475a17.26,17.26,0,0,0-3.83-2.8c-1.87-1.15-4.23-2.48-6.76-3.89s-5.18-3-7.69-4.5a64.38,64.38,0,0,1-6.64-4.54c-1.68-.36-4.4-1.32-3.58-.08l2.63,1.29c1.66,2.49-5.65-1.25-2.77,1.16-1.92-.61-4-1.16-6.19-2a24.82,24.82,0,0,1-6.54-3.78l.07-2.11c-.18.52,2.52,2.83,4.14,3.16-2.4-.53-5.94-6.5-9.34-5.86.87,1.06,1.74,2.12,2.62,3.15-3.84-1.3-9.1-2.32-12.9-5.58.88,2.77,1.06.46,2.85,4.2-1.17-3.84,10.71,6.93,8,2,1.77,4,4.75,4.13,7.68,8.39.19-.61-.84-1.84,2.57.53a4.72,4.72,0,0,1,1.06,0l.22.18-.16-.18c.2,0,.22,0-.06-.07a5.22,5.22,0,0,1-1.35-1.86c2.49-.15,8.12,3.23,10.4,3.73,2,1.48-1.24.09-.41,1.32l3.43.71c-.39,1.33,4.56,5.18-.86,3l4.5,2.64a24.63,24.63,0,0,0,8.44,5.22c2,1.46,6.18,1.64,3.79,1.57L173,483l-.08.33c3.52,2,7.52,3.3,11.47,5A43.26,43.26,0,0,1,196,495a42.86,42.86,0,0,1,9.31,3.89l.34,1.42c3.36,1,9.14,5.34,11,4.77,1.13,2.16,5,4,9.26,5.57s9,2.92,11.76,4.24l.76-1.34a62.45,62.45,0,0,0,6.06,2.05c2.13.6,4.42,1.12,7,1.72l.15-1.37c2.31.24,4.95,1.44,7.91,2.8a67,67,0,0,0,9.61,4c-.62.35-2.31-.33-3.44-1,3.61,2.72,8.08,3.61,12.5,4.23s8.72,1.15,12.25,3.19a9.1,9.1,0,0,1,4.57,1.25,1.46,1.46,0,0,0-.49-.06,7.27,7.27,0,0,0,.78.22c.77.46,1.58.9,2.47,1.33a12.85,12.85,0,0,0-2.06-1.22,49.26,49.26,0,0,0,6,.85l.61,1.63c.19,0,.33.06.52.07,2,1,1.87-.26,1-1.59a12.58,12.58,0,0,0,3.07-.22c1.28,2.63,5.89.36,7.82,3.27,1.7-1,11.25,1,12.78-1.51,0,.34.66.58-.54.45,2.42.6,4.84,1.2,7.13.77l.84,1.94,5.63-1.95c3.16,1.42,4.49,2.2,1.1,3.3,2-.33,3.43-.58,4.52-.73s1.86-.2,2.59-.26a26.24,26.24,0,0,0,6.17-1.15l-.38,1.18c2.41,0,6.26-1.45,7.68-.43,1.33.61,3.65.87,6.61,1s6.54.1,10.38,0l2.93-.08,3-.16c2-.1,4-.19,6-.25,4-.22,7.92-.28,11.41-.17-3.06-3.14,6.56.76,6.76-2,.9.72,2.88.93.76,1.93,6.85-1.84,10.73-.27,15.11-3.44.94.67-1.27,1.46-.48,1.82.53-.28,2.08-1.11,2.9-.76s-.89.87-1.93,1.42c3.55-.71,5.38-1.74,6.31-2.94a5.49,5.49,0,0,0,1-3.67c3.77.35,5.54-.13,7.71-2.3,1.4.47,3.64.77-.62,2.09,1.22-.24,5-.85,8.46-1.65s6.53-1.94,6.4-2.9c.88.26,3.41-.76,4-1.18l5.64-1.49c1.46-.4,2.9-.81,5.49-1.76l-1.55.17c1.37-2.87,4.19-1.88,8.3-3.52l0,.26c5.06-.88,6-1.43,7-1.94s1.92-1,6.93-1.86l-1-1.16c-.1-1.61,2.12-2,5-2.3s6.4-.81,8.87-2.44l-2.25,0c2.54-2.1,9.79.46,12.92-.43.75,0-.84.82-1.66,1.39,4.23-.8,4.29-1.37,4-2.06s-1-1.54,1.8-3c1.47.45-.3,3,3.62,1.41,1.13-.06,3.59-2.06,6.45-4.2s6.2-4.31,9.18-4.75c-1.48-.13-2.94-.28-.62-2.1,1.91-1.13,5-1.76,7.76-2.73s5.48-2.14,6.66-4.16c.6-.07.89,0,1,.17,2.66-2.21,9.16-6.2,10.24-8.41,2.56,1.36,6.89-1.71,10.7-4.79a48,48,0,0,1,5.23-3.86c1.48-.86,2.61-1.11,3.2-.12l8.7-5.7,0,.54c5.74-3.27,7.13-5.44,8.5-7.61,1.46-.55.74.41.76.68,8.64-4.42,9.38-5.06,14.94-11.38l1.51.79c.69-1,4-2.35,7.9-4.38s8.61-4.65,12.05-8.07c0,.2,0,.55-.49,1.15,3.92-3.77,9.83-6.47,14.68-9.29a36.94,36.94,0,0,0,6.23-4.18,6.4,6.4,0,0,0,2.52-4.66L664,412c-7.56,5.13-.33-2.69-3.88-1.16a14.54,14.54,0,0,1,4.78-2.66c1.32-.44,1.93-.18.27,1.28l-.72.19c.48,3.3,9.53-6.22,10.54-4.56,14-11.35,28.16-22,40.23-34l-2.92-.15,4.21-4.13c1.45-.75,2.69-.29-.33,2.67,2.45-.73,4.2-5.79,3.93-6.2,1.62-1.31,2.35-1.76,2.64-1.66s.12.74-.2,1.48c-.68,1.46-1.94,3.37-1,2.48s1.55-1.71,2.27-2.61l-.71.4c1.23-2.68.69-3.51,4.18-7.18,2.48-2.08,2.11-.31,3-1.19.11.11.45-.16,1.35-1.39,1.75-1.78,3.38-3.66,5-5.52l-3.24,1.15c1.48-3.08,4.58-5.28.88-3.94,1.38-.47,3.24-2,5.3-4,1-1,2.11-2.17,3.2-3.39s2.09-2.56,3.13-3.88c4.12-5.27,7.93-10.46,9.14-11.49,1.69-4.48,4.37-8.14,7.8-12.61-.56.46-1.36.58-1.64.12s0-1.52,1.41-3.47c1.15,1.88,2.77.28,4.67-2s4-5.3,6.28-6.19c-3.47,2,6.87-12.08,1.65-8.77,2.35-3.32,1.42.56,3.8-1.61,3.61-9.09,11.43-18.09,16.25-29.14-.4-.4-2,1-1.58-1.6,1.71-1.51,3.47-3,5.12-4.57.75-2.27-1.86-3.25,1.6-6.43-.66.38-1.64.93-1.14-.58a83.39,83.39,0,0,0,4.11-7.84c1.27-2.68,2.5-5.39,3.54-8.19s2.12-5.6,3.11-8.43l2.76-8.59c1-2.85,1.73-5.78,2.65-8.65s1.86-5.74,2.71-8.64,1.89-5.74,3-8.58,2.05-5.72,3.27-8.55c-1.69,3-1.33.83-.84-1.6-.58,1.53-1.27-.3-2-.12.71-1.56,1.3-3.15,1.89-4.74l1.8-4.8a4.13,4.13,0,0,1-.48-2.58c0-.56.09-1.16.17-1.79s.12-1.28.18-1.93c.27-2.58.53-5.07-.35-5.69v3.19c-.88-2.23-2.28-.89-3.81.83a29.88,29.88,0,0,1-2.32,2.5c-.8.67-1.6,1.06-2.28.81.88,2.44-.54,5.3-1.88,8.48-.35.79-.65,1.61-1,2.45a20,20,0,0,0-.84,2.58,11.83,11.83,0,0,0,0,5.68c-.92,1.49-.61-1.58-1.45-.86a7.29,7.29,0,0,1,.41,3.51,19.82,19.82,0,0,1-1.47,4.9l-.17-.54c-.69,2.9-1.35,5.37-2,7.64s-1.56,4.28-2.38,6.35c-1.58,4.17-3.65,8.36-6.21,14.54l1.66-.45a14.48,14.48,0,0,1-2.61,4.19c.41,1.93,1.16.05,2-1.86s1.52-3.88,2.15-2.05A5.54,5.54,0,0,0,801,218.4a19.15,19.15,0,0,0-1.44,2.52c-1,1.92-1.87,4.25-2.78,6.54-1.89,4.56-3.92,8.91-5.91,9.45-1.75,4.07,2.06-.53.24,3.53l-1.3.7.57,1.5c-1.38,2.57-3,3.44-3.73,3.22a17.17,17.17,0,0,0,.9-2.62,23.32,23.32,0,0,0-3.12,6.13,30.63,30.63,0,0,1-2,4.63l2.37-3.58c-1.16,2.8-2.46,5.72-3.91,8.65l-4.59,8.84c-1.6,2.92-3.15,5.87-4.6,8.75s-2.82,5.7-3.94,8.44l1-.41c-3.65,8.29-4.35,5.76-9.21,14.31l.06-.39a21.65,21.65,0,0,1-3.32,6.55c.37-1.26-.57-.5-1.54.14s-1.85,1.2-1.25-.36c-4.62,8.64-2,4.48-3.73,11.18l-1.77.54c-.49,2.37-.12,2.88-3,6.94,1.74-3.77-3.29,1.45-1.5-2.88a29.16,29.16,0,0,0-7.57,9.47,16.45,16.45,0,0,1-2.42,3.52,6.51,6.51,0,0,1-3.39,2c-.7,5.6,7.08-5.74,5.87-3.3,2.21-1.09-.74,4.48-3.1,6.77-1.09,1.25-2.76,1.69-4.8,2.61a18.58,18.58,0,0,0-3.33,1.9,21.88,21.88,0,0,0-3.92,3.48c.56-.6.43-.8,1-1.4-2.66,1.77-3.3,5.21-6.79,7.16,0,2.88-3.47,3.51-2.18,5.59.82-1,1.66-1.93,2.45-2.93l2.36-3c-2.38,3.66-3.29,8.44-9.25,12.63a15.13,15.13,0,0,1,1.86-4c-2,1-2.48,3.19-4.5,4.23-1.26-2.13,6.13-7,8-11.55-2.24.93-4.84,7.43-5.07,4,0,2.33-1.49,3.72-3.25,5.24a30.88,30.88,0,0,0-2.7,2.5,10.87,10.87,0,0,0-2.29,3.46l-.72-1.28a16.35,16.35,0,0,1-2.56,3.62l.86-3.37c-2.21,4.25-7.19,5.07-9.88,8.53,3.38-3,4-3.09,4.29-2.57s.18,1.58,1.92.63a17.72,17.72,0,0,1-2.33,2.69,11,11,0,0,1-1.91,1.5,8.49,8.49,0,0,1-3.16,1.08,11.65,11.65,0,0,0-3.48,1.07,24.38,24.38,0,0,0-5.34,4c1.2-1.21,5.38-3.52,3.82-1.26a24.63,24.63,0,0,1-6.39,3.31c-6.18,5.57,1.92.31-.23,3.25a3.5,3.5,0,0,0-2.88,2.12,14.14,14.14,0,0,1-2.32,3.8l-.92-1.12c-8,5.17-.11,3.93-7.55,8.38l1.62-3.84-3.2,3.17-.27-1.87c-3.13,3.9-4.55,4.55-8.63,7,1.48.15,1.09,2.52-2.33,5-2.86,1,.51-2.05-4.25,1.6.57-1.52,1.11-3.3,4-3.74,0-.53.55-1.51.49-2.05-3.08,1-6.46,4.34-8.21,5.61a9.56,9.56,0,0,1,2.1-1.08c-2,2.21-3.91,4.48-5.93,6.65-1.44.33-.8-.64-.15-1.6-1.37,1.12-2,2.36-4.06,3.92-.11-1.35-.93-2.26,1.77-4.78l-6.08,5.75c-.74-.1-4.3,1.22-3.65.26-4.22,1.93-8.09,8.16-13.75,10.68a5.16,5.16,0,0,1-1.56,1.74c-5,2.91-10,4.41-14.92,9.43l-4.4.29c-4.27,3.27,5.86-.55-1.26,4.88-5,3.94-2.95-.27-5.13.42-2.1,2.6-5.53,7.25-11.32,8.81C574.12,458.47,575.54,457.94,577,456.87Zm-56.85,32c1-.82,2.88-2.75,4.08-2.38C523.61,488.58,522.26,488.35,520.12,488.84ZM427.27,523.5c.84-.62,2.3-.72,4-.52A10.9,10.9,0,0,1,427.27,523.5ZM157.08,474.33h.16C159.5,476.22,158.71,475.53,157.08,474.33Zm-4.91-3.48c-.62-.12-.68.07-.56.37.54-.11,1.72.54,3,1.38C154.43,472.06,153.88,471.45,152.17,470.85ZM730.33,354.12l-1.06.61C730.73,352.5,730.51,353.3,730.33,354.12Z"/><path class="cls-1" d="M437.87,519.23a1.24,1.24,0,0,1,.7.64C439,519.52,438.94,519.24,437.87,519.23Z"/><path class="cls-1" d="M611.13,434.32l.17-.1a.56.56,0,0,0,0-.33Z"/><path class="cls-1" d="M240.3,499.27a6.43,6.43,0,0,1,1.91,1.53C242.4,500.49,242,500,240.3,499.27Z"/><path class="cls-1" d="M123.61,456.73c1.17.6,2.32,1.13,3.48,1.7a9,9,0,0,1-2.7-2.22C124.28,456.55,124.65,457.36,123.61,456.73Z"/><path class="cls-1" d="M101.24,430.44c-.56-.19-1-.69-1.51-.88l-.28.63C101.37,431.57,103,432.13,101.24,430.44Z"/><path class="cls-1" d="M123.16,450.74c.4-1.19-1.85-2.11-4.21-3.43.14.09.27.17.4.27C117.75,448.55,120.44,449.7,123.16,450.74Z"/><path class="cls-1" d="M118.41,447a18.47,18.47,0,0,1-2.08-1.34C115.68,446.05,117.09,446.33,118.41,447Z"/><path class="cls-1" d="M145.17,467.79c-.94-.92-1.47.94-1.84.14C141.31,468.58,151.64,470.55,145.17,467.79Z"/><polygon class="cls-1" points="123.51 446.21 123.5 447.98 125.42 447.77 123.51 446.21"/><path class="cls-1" d="M140.83,458.18c-1.15-.84-2.31-1.67-3.44-2.54-.08.25-.62.09-1.24-.16C138.35,456.91,140.69,458.61,140.83,458.18Z"/><path class="cls-1" d="M136.15,455.48a12.66,12.66,0,0,0-3.05-1.57A26.44,26.44,0,0,0,136.15,455.48Z"/><path class="cls-1" d="M128.65,448.94l.9.94,2.5,1.66C130.92,450.67,129.77,449.83,128.65,448.94Z"/><path class="cls-1" d="M180.76,480.58l4.34,1.71c.65-.25-.33-1.1-2-1.69C182,480.42,180.35,479.82,180.76,480.58Z"/><path class="cls-1" d="M170.23,470.45a4.3,4.3,0,0,1,1.27,2l1-1.58Z"/><path class="cls-1" d="M182.38,476.3c.64-.25,6.64,1.69,1.37-.83C183.11,475.71,178.78,474,182.38,476.3Z"/><polygon class="cls-1" points="245.16 506.57 244.05 506.18 243.13 509.1 245.16 506.57"/><path class="cls-1" d="M305.5,517.63c-5-1.92-1.67,1.55-6.17-.44-1.41.42,3.68,1.63,2.28,1.94C305,519.12,306.5,519.93,305.5,517.63Z"/><path class="cls-1" d="M301.61,519.13c-.54,0-1.11,0-1.73.08A8.35,8.35,0,0,0,301.61,519.13Z"/><polygon class="cls-1" points="827.76 160.43 828.8 156.86 827.52 159.09 827.76 160.43"/><path class="cls-1" d="M826.28,153.23l2-.67-1.51-2.32C826.79,151.06,826.79,152.66,826.28,153.23Z"/><path class="cls-1" d="M509.71,489.26l-.06.54c.7.24,1.45-.06,3-.66Z"/><polygon class="cls-1" points="552.44 469.52 551.71 469.87 553.9 470.68 552.44 469.52"/><path class="cls-1" d="M585.33,447.19c-1.43.82-2.85,2.18-4.28,3C583.9,448,586.88,448.81,585.33,447.19Z"/></svg>