<svg id="corde" xmlns="http://www.w3.org/2000/svg" viewBox="0 50 861.95 615.42"><defs><style>.cls-1{fill:#b38a58;}</style></defs><path class="cls-1" d="M81.8,392.94c-.84-1.37-1.54-.19-1.87-.26C81.72,394.73,82,392.7,81.8,392.94Z"/><polygon class="cls-1" points="99.67 412.73 98.98 412.67 102.34 415.01 99.67 412.73"/><path class="cls-1" d="M115,432.12c.18-3.18-5.93-6.72-8.13-10.62l-.08-.86c-.87-.15-1.72-.33-2.57-.51C107.79,424.18,113.13,428.8,115,432.12Z"/><path class="cls-1" d="M120.17,445.17c.09-1.16,2.44,1.69-1.85-2.5a3.84,3.84,0,0,1,.21.56C118.9,443.63,119.39,444.19,120.17,445.17Z"/><path class="cls-1" d="M118.53,443.23c-1.78-1.94.61,1.75,0,0Z"/><path class="cls-1" d="M126.94,452c-1-.66-1.92-1.38-2.87-2.08.1.89,2.09,3.25,1.06,2.64C127.88,454.89,127.73,454,126.94,452Z"/><path class="cls-1" d="M130.34,453.33l-1.46-1.09C128.94,452.61,129.22,453,130.34,453.33Z"/><path class="cls-1" d="M125.81,449.9c1,.82,2,1.57,3.07,2.34-.09-.6.39-1.1-1.38-1.1C128.19,450.93,127.2,450.82,125.81,449.9Z"/><path class="cls-1" d="M124.63,448.07c-.93-1.77-2.36-3.84.48-1.74C120.53,441.58,120,443.3,124.63,448.07Z"/><path class="cls-1" d="M117.53,431.67l-1.14-2.39-2-1.25C115.41,428.66,117.12,432.22,117.53,431.67Z"/><path class="cls-1" d="M141.14,468.34c.48-.17,0-1.68.25-2.27l-2.2-1.42C139.91,465.79,141.49,467.74,141.14,468.34Z"/><path class="cls-1" d="M141.39,466.07l3.29,2.12C142.3,465.74,141.59,465.57,141.39,466.07Z"/><path class="cls-1" d="M132.51,452.15c-1.82-1.15-3.71-2.24-5.48-3.45,2.05,1.5,4.22,2.88,6.32,4.31Z"/><path class="cls-1" d="M151.65,478.59c-.77-.24-1.57-.45-2.33-.71,1.31.51,2.65,1,4,1.45Z"/><path class="cls-1" d="M159,485c-1.78-.43.67,2.59-1,1.85a20.26,20.26,0,0,0,3.15,2c.53.27,1,.52,1.56.76l1.55.62a11.76,11.76,0,0,1-2.72-2.1A23.32,23.32,0,0,1,159,485Z"/><path class="cls-1" d="M167.59,491.68a28.84,28.84,0,0,0-3.27-1.43A15.28,15.28,0,0,0,167.59,491.68Z"/><path class="cls-1" d="M149.18,472.9a4.52,4.52,0,0,0,1.26,3.05l-.2-2Z"/><path class="cls-1" d="M150.23,473.9V474c1.15,1.16,1.94,2,2.3,2.29C152.23,476,151.53,475.28,150.23,473.9Z"/><path class="cls-1" d="M148.91,472.63l.27.27C149.16,472.71,149.13,472.62,148.91,472.63Z"/><path class="cls-1" d="M138.52,460.19c2,1.16,5.89,3.86,3.48-.07C140.28,459.57,141.61,461.88,138.52,460.19Z"/><path class="cls-1" d="M148.69,470.17l-2.69-3c-.18.29,0,1.16-1.05.64Z"/><polygon class="cls-1" points="150.38 471.26 148.69 470.17 149.69 471.3 150.38 471.26"/><path class="cls-1" d="M163,486.25a28.65,28.65,0,0,1,4.91,3.27c-.82-.84-1.66-1.67-2.53-2.47s-1.68-1.64-2.53-2.39C162.38,484.75,161.16,484.61,163,486.25Z"/><path class="cls-1" d="M156.85,480.2l.34.2C157.09,480.16,157,480,156.85,480.2Z"/><path class="cls-1" d="M184.64,502.88c0-.13-.08-.26-.13-.4l-.2.13Z"/><path class="cls-1" d="M162.75,484.22a6.59,6.59,0,0,0-3.11-2.19c1.05.78,2.14,1.64,3.25,2.63C163.11,484.62,163.21,484.55,162.75,484.22Z"/><path class="cls-1" d="M172.58,495a30.32,30.32,0,0,0-1.89-2.48C171.12,493.44,172.12,495.09,172.58,495Z"/><path class="cls-1" d="M157.39,481.06l-.23-.13C157.4,481.52,157.44,481.37,157.39,481.06Z"/><path class="cls-1" d="M157.39,481.06a12.42,12.42,0,0,0,2.25,1,24.71,24.71,0,0,0-2.45-1.63A2.6,2.6,0,0,1,157.39,481.06Z"/><path class="cls-1" d="M194.66,500.14c-.93.78-5.21-1.07-7.55-4.44-3.6-1.61-4,3-2.6,6.78.4-.34.7-.71,4.31,1.14-.74-1.37-6.15-6.56-2.82-5.38,4.57,2.68,3.19,2.93,4.87,5-.43-1.26,1.22-.68,3-.1s3.83,1,4-.16l-2.11-1-2.05-1.07C193.85,500.59,195.49,501.16,194.66,500.14Z"/><path class="cls-1" d="M178.47,497.76c-.47-.29-.91-.62-1.37-.93a27.29,27.29,0,0,1,3.54,4.78c2.56,1.21,3.28,1.2,3.67,1l-6.39-5.06A5.2,5.2,0,0,0,178.47,497.76Z"/><path class="cls-1" d="M171.38,492.11c1.82-.17,5.21,1.91,4.23-.71-3.76-3-3.29-1.32-5.87-2.73,6.21,4.73-2.19-.88,1.69,3.28a40.08,40.08,0,0,1-3.48-2.43c1,1,1.91,2,2.74,3l-.08-.18,0,0h0c-.15-.34-.18-.49.06-.17,0,0,.1.06.14.08a1.34,1.34,0,0,1,.58-.15c1.58,1.65.06.49-.58.15-.06,0-.15,0-.2.09l0,0,6.49,4.45A55.31,55.31,0,0,0,171.38,492.11Z"/><path class="cls-1" d="M146.92,461.06c.09.25,0,.3,0,.38C147.35,461.68,147.56,461.73,146.92,461.06Z"/><path class="cls-1" d="M148.64,463.83a4.7,4.7,0,0,1-2.44-1.6c-.86-1.38.44-.43.68-.79-1-.52-3.41-2-1.39.82l.52.26c1.91,2.49,3.66,6.46,3.15,6.2A10.68,10.68,0,0,0,148.64,463.83Z"/><path class="cls-1" d="M160,478.07l5.23,3.86-1.7-3-.32.61C160.7,476.85,160.73,478,160,478.07Z"/><polygon class="cls-1" points="184.85 503.84 183.33 504.41 187.51 505.15 184.85 503.84"/><polygon class="cls-1" points="191.76 508.82 190.8 509.6 193.08 510.3 191.76 508.82"/><path class="cls-1" d="M618.93,433.25l1.13-1.51A11.44,11.44,0,0,0,618.93,433.25Z"/><path class="cls-1" d="M608.88,442.15l.13.66C609.27,442.15,609.31,441.81,608.88,442.15Z"/><path class="cls-1" d="M390,561.92c1.47.41,3,.91,4.19,1.14s1.85.23,1.59-.41l-1-1.16a16,16,0,0,1-2.59.48A12.53,12.53,0,0,1,390,561.92Z"/><path class="cls-1" d="M521.2,510.14l-.89,0-1.06,2Z"/><path class="cls-1" d="M520.37,504.48c1.18-.31,2.37-.62,3.55-1A25.6,25.6,0,0,0,520.37,504.48Z"/><path class="cls-1" d="M667.4,378.4l.27-2.52C665.62,378.55,667.05,377.79,667.4,378.4Z"/><path class="cls-1" d="M269,549.25a36.29,36.29,0,0,0,5.48,2.78C271.94,550.33,270.09,548.48,269,549.25Z"/><path class="cls-1" d="M624.32,447.11c.7-1,.88-1.51.66-1.7C624.25,446.4,623.92,447,624.32,447.11Z"/><path class="cls-1" d="M281.25,554.05c-.38-.24-.77-.43-1.16-.65a28.33,28.33,0,0,1-5.61-1.37A11,11,0,0,0,281.25,554.05Z"/><path class="cls-1" d="M779.29,137.81c.11-.17.19-.39.3-.55C779.44,137.16,779.36,137.42,779.29,137.81Z"/><path class="cls-1" d="M807.43,62.87a27.75,27.75,0,0,1-.13,3.35A11.9,11.9,0,0,0,807.43,62.87Z"/><path class="cls-1" d="M220.3,527.9c-1.63-.81-.32,0,0,0Z"/><path class="cls-1" d="M215.43,519c.4.07.74.06.93-.17A1.22,1.22,0,0,1,215.43,519Z"/><path class="cls-1" d="M300.56,550.79l.15,0C300.26,550.46,300.33,550.53,300.56,550.79Z"/><path class="cls-1" d="M218.22,526.05a15.27,15.27,0,0,0,1.82,1.47C219.77,527.25,219.2,526.82,218.22,526.05Z"/><path class="cls-1" d="M218.22,526.77l-1.28-.94C216.63,525.9,216.73,526.12,218.22,526.77Z"/><path class="cls-1" d="M222.55,529.06a23.88,23.88,0,0,1-2.51-1.54c.27.25.37.39.26.38Z"/><path class="cls-1" d="M734.64,274.46a3.4,3.4,0,0,1,.26-.29C735.14,272.33,734.9,273.07,734.64,274.46Z"/><path class="cls-1" d="M432.56,539.71c-.08,0-.11.08-.18.12l.26,0Z"/><path class="cls-1" d="M438.3,537.09a7.17,7.17,0,0,1-5.66,2.71l3,3.09Z"/><path class="cls-1" d="M641.46,410.32l-3.85,2.39c2.22-5.17,5.3-7.47,1.3-5.62,1.28,1.61-1.55,4.78-4.39,7.94s-5.86,6.14-4.64,7.8l-2.65,1.43c.61-.55.54-.82,1.15-1.37-2.68,1.28-2.89,2.55-3.16,4.08s-.6,3.27-3.46,5.54c-2.07,1.5-3.76,2.27-2.83.74l-3.45,4.58c-1.29,1-1.46.23-.18-.79l-6.26,5.9,0-.13a42.37,42.37,0,0,1-2.72,5.09c-2,1,.56-1-.2-1.07-1,1.3-2,2.53-3,3.8-2.2.4.26-2.84,2.84-4.87-3-.08-3.61.68-4.56,2.09s-2.3,3.36-6.75,5.46l3.15-3.24c-3.7,0-5.83,2.93-10.74,4.81.7-.06,3.26-.88,5.22-1.2s3.28-.2,1.59,1.83a12.11,12.11,0,0,0-4.67,4c-.9-1.13-2.84.8-5.49,2.93l-1-1.68c-2.57,2.67-1.81,3.22-3,5.2-3.45,2.24-5,1.52-6.51,1.06-5.49,3.56,5-.69-1,4.13a32.45,32.45,0,0,0-6.28,4.16c-1.89,1.61-3.8,3.44-6.24,5.71-3.57,1.56-.08-1.35-1.53-1.05l-2,3.15c-.72.42-.75-.12-.76-.39-2.1,2,.84,1.74-2.71,4.59.05,1.21-2.33,1.81-5.15,2.7s-6.11,2-7.89,4.49c-1.46.23,0-1.35-.77-1.78-2.9,2.61-4.18,3.67-5.27,4.72s-2,2.08-4.25,4.52l-5.3,1.51c4.13-.67.58,3.33-2.72,6.62,1.58-.05,2.93-.08,3.79-.21l-5.82,4.25c-.91.13-.58-.79.08-2-.36.37-.69.72-.94,1-2.58.56-1.92-1-.81-2.84.94-.07,1.88-.11,2.81-.15,1-1.85,1.83-3.75,1-4.57a8.16,8.16,0,0,1-1.8,1.54c.25-.49.38-.88.1-.95s-.75.65-1.54,1.63l-2.41-1.15.05.94c-2.91,1-5.87,2-8.79,3-4.91,4.84-8.75,10.2-18,15.29,1.77-2.47-.52-2.56-1.13-4.32,1.7.33,3.46-.72,5.43-2a36.44,36.44,0,0,1,6.66-4c-2.63,1-2.45,0-1.94-.63-2.63,1.94-5.33,3.75-8,5.65-.42-1.48-2.32-.18-4.89.21,2.94,2-5.8,4.72-9.13,7-.61-.86-.11-2.13,4.4-3.73-2.86,0-4.11,1.4-5.34,2.9s-2.44,3.05-5.22,3.06c1.09-.43,1.73-.52,2-1.17-2.23,1.84-8.76,3.49-7.58,2.12l1.08-.43c-1.84.61-4.15,1.42-6.6,2.27s-5,1.89-7.37,2.81a51,51,0,0,0-6.08,2.82c-1.57.91-2.6,1.7-2.7,2.4a12.14,12.14,0,0,1,.39-3.86L437.36,543c-1.84,2-3.74,4-5.65,6,.62-2.43-5.21-6.29.67-9.12a20.21,20.21,0,0,0-7.71,2.1c1.3,0,3.82,2.3,2.19,2.94-5.19-1.28-3.52-.51-9.64-1.21,1.94,0,.66,3.89-2.32,4.36.35-.59-.94-3.27.05-3.83-2.18,1.59-4.38,3.21-6.61,4.79,1.71-1-.22-2.85-2-3.52.87.51-6.28,1.08-8.17,1.69,1.07.12,2.14.18,3.21.26a14.92,14.92,0,0,0-4.8,1.29,16.94,16.94,0,0,0-3.09,2.11,16.71,16.71,0,0,1-3.11,2.15,13.52,13.52,0,0,1-4.85,1.28c.94-.81,2-4.55-2.24-4.49a47.35,47.35,0,0,1-5.46,5.51,32.58,32.58,0,0,1-4.52,3.23A20.51,20.51,0,0,1,368,560.6l-1.5-.91c-1.9.5-3.82.91-5.75,1.31.89-.67,2.17-1.5,3.67-2.47s3.21-2.08,5-3.15c3.51-2.08,7.15-4.37,9.71-5.64-3.17-.52-1-1.09-5.58-.61-1.7-.78,2.41-1.61,3.76-1.78-1.8,0-3.59.12-5.38.14l-5.38,0c.29,1-1.74,1.64-3.8,2.14s-4.14,1-3.92,1.8c2-.4,3.91-.74,5.86-1.19l5.81-1.34c.3,1-1.31,2.51-4,3.78A23.06,23.06,0,0,1,356,554.74c-2-.77,1.45-3.62,1.27-4.29-1,.78-7.3,1.31-8,.8l3.26-1c-2.12-.41-3.87.23-5.74.73a9.14,9.14,0,0,1-6.37-.35,13.37,13.37,0,0,1-3.26-1.37c-1.1-.57-2-1-2.21-.39,2.67,2.54,2.85,9.66.73,11.25-.65-.23-9.44-3-11.33-4.44-2.73-2.15,4.9-3.73,2.56-5.58-.16.54-1.85,1-2.55,1.15-1.8-.69,1-1.6-3.08-1.84-1,2-8.14-1.42-2.14,1.47-4-.05-4.13-1.08-8.75-1.73,1.25,1.59-4.95,3.6-9.11,3.37.35-.47-.41-1.29-.77-1.7-2-.53-3.76-1-5.39-1.55s-3.13-1-4.58-1.56c-2.92-1.12-5.76-2.19-9.45-3.27-.54-.67-3.9-2.29-2.12-2.68a10.86,10.86,0,0,1-4.57-.44c-3.72-3.2,5.05,1.51,2.45-1.68-.65,1-6.26-.48-9.7-.92.34,2.07,7.25,2.95,10.64,3.37-.76,2.42-7.18,3-15.35,1.28-6.24-1.93-2-2.61-3.17-2.71a23.31,23.31,0,0,0-10.9-2.62c-2.51-.13-4.73-.4-8.92-3.44-2.91-3.21,1.26-3,1-4.39a20.58,20.58,0,0,1,5.68,3.07,19.7,19.7,0,0,0,4.41,2.81c-1.26-.77-2.46-1.67-3.67-2.54a21.7,21.7,0,0,1,3.38.92,12.23,12.23,0,0,1,3.28,1.53,18.15,18.15,0,0,0-4.08-2.48c-1.94-1.07-4.38-2.29-7-3.59l-4-2-2-1c-.67-.35-1.3-.75-1.94-1.12a79.32,79.32,0,0,1-6.78-4.45c-1.7-.32-4.48-1.22-3.62,0l2.69,1.23c1.75,2.45-5.77-1.13-2.78,1.21l-3.08-.85c-1.06-.31-2.11-.72-3.2-1.16a25.46,25.46,0,0,1-6.63-3.88l.09-2.11c-.19.52,2.53,2.86,4.17,3.22-1.21-.27-2.71-1.93-4.34-3.44S207.66,512.7,206,513c.83,1.11,1.72,2.15,2.61,3.2-2-.63-4.22-1.32-6.47-2.23a22.2,22.2,0,0,1-6.43-3.71c.85,2.79,1.07.49,2.82,4.27-.53-2,2.1-.13,4.56,1.57.61.42,1.21.84,1.75,1.18a8,8,0,0,0,1.4.71c.74.24,1,0,.3-1.25,1.78,4,4.82,4.22,7.82,8.55.19-.6-.85-1.89,2.61.59a4.25,4.25,0,0,1,1.06,0l.22.19-.16-.18c.2,0,.22,0-.07-.07a5.47,5.47,0,0,1-1.36-1.93c2.44,0,8.33,3.19,10.64,3.67,2,1.46-1.25.11-.37,1.33l3.48.69c-.36,1.34,4.79,5.2-.77,3,1.55.88,3.09,1.77,4.7,2.53a26.92,26.92,0,0,0,8.92,4.89,10.33,10.33,0,0,0,3.7,1.2c1,.14,1.49.14.26.19l8.07,2.49-.06.34c1.89.84,3.87,1.55,5.89,2.22s4.18,1.1,6.3,1.71a56.46,56.46,0,0,1,12.7,5.23,44.52,44.52,0,0,1,10.05,2.53l.6,1.34a44.7,44.7,0,0,1,6.71,1.89c2.33.78,4.49,1.21,5.37.8a9,9,0,0,0,4.12,2.28,39.56,39.56,0,0,0,6.45,1.23l3.53.4c1.18.11,2.35.17,3.46.26a47.86,47.86,0,0,1,5.83.7l.4-1.48a63.81,63.81,0,0,0,6.56.35c1.13,0,2.3,0,3.52,0l3.85-.22-.26-1.36c2.33-.45,5.27,0,8.56.36,1.65.2,3.38.44,5.16.62a40.85,40.85,0,0,0,5.43.15c-.48.53-2.35.43-3.66.14a19.42,19.42,0,0,0,6.72.85,41,41,0,0,0,6.77-1c4.48-.82,8.76-2,12.8-1.25a9.48,9.48,0,0,1,4.76-.51,1.87,1.87,0,0,0-.48.12,6.85,6.85,0,0,0,.8-.07c.9.13,1.82.29,2.81.39a13.34,13.34,0,0,0-2.37-.45,38.65,38.65,0,0,0,6-1.27l1.15,1.29c.18,0,.33-.06.51-.12,2.28.21,1.67-.93.35-1.84a16.19,16.19,0,0,0,2.81-1.29c2.15,2.08,5.68-1.72,8.52.3,1.3-1.37,10.94-3.08,11.56-5.81.14.31.82.33-.36.59a16.57,16.57,0,0,0,7-1.76l1.46,1.55c1.59-1.2,3.14-2.47,4.68-3.73,3.46.24,5,.51,2.15,2.72a65.12,65.12,0,0,1,6.41-3.3,29.79,29.79,0,0,0,5.47-3.14l0,1.23c2.31-.71,5.47-3.44,7.16-2.93a20.53,20.53,0,0,0,6.64-1.13c2.86-.82,6.28-1.94,9.9-3.3,7.28-2.59,15.38-5.94,22.17-7.72-1.94-1.08-.29-1.33,1.74-1.7s4.48-.85,4.17-2.19c1.07.42,3,0,1.28,1.63a52,52,0,0,1,7.81-3.58,12.76,12.76,0,0,0,5.79-4c1.09.38-.82,1.77,0,1.88.43-.41,1.69-1.65,2.57-1.54s-.61,1.08-1.46,1.91c6.42-3.4,5.91-6,5.26-8.35,3.74-.7,5.29-1.7,6.86-4.31,1.49.09,3.75-.18-.06,2.16,2.29-1,14-6.43,13.26-8.26.92,0,3.11-1.64,3.57-2.16,4.92-2.75,5.4-2.91,10-5.91l-1.48.52c.67-3.08,3.63-2.85,7.26-5.46l0,.27c4.78-2,5.55-2.85,6.38-3.56s1.64-1.42,6.36-3.43l-1.26-.89c-1-3.11,8.44-3.43,12.5-7.89l-2.19.56c1-1.36,3.41-1.8,6-2.11s5.24-.46,6.62-1.31c.72-.22-.62,1-1.3,1.77,7.86-3.67-.25-2.17,4.5-6.34,1.54.09.37,3,3.87.52,1.08-.33,3.09-2.8,5.38-5.61s5.06-5.72,7.93-6.81c-1.5.21-3,.41-1.09-1.89,3.19-3.12,11.11-5.71,12.49-10.25.56-.23.86-.23,1-.1,2.08-2.81,7.43-8.37,8-10.73,2.84.68,6.21-3.53,9.22-7.45.76-1,1.5-1.93,2.18-2.82a24,24,0,0,1,1.92-2.31c1.21-1.24,2.26-1.78,3.08-1,2.33-2.63,4.73-5.2,7-7.88l.17.52c4.68-4.86,5.43-7.38,6.15-9.87,1.26-1,.84.17.94.42,1.82-1.67,3.12-3.06,4.2-4.25a29.65,29.65,0,0,0,2.61-3.24,45.8,45.8,0,0,0,4.1-8.15l1.68.24c.63-2.3,10.65-9.78,14.75-18.75a1.5,1.5,0,0,1-.08,1.25,42.68,42.68,0,0,1,4.9-7.2c1.85-2.38,3.87-4.68,5.68-6.87a33.86,33.86,0,0,0,4.36-6.21c.94-1.95,1.29-3.74.66-5.3l2.64-6.77c-5.22,7.61-1.28-2.39-4,.35,1.65-3.21,6.3-7.09,4.22-3.16l-.6.45c1.66,2.91,6.65-9.36,8.18-8.19l13.47-23.31,6.35-11.54c1-1.91,2-3.83,3-5.76s1.9-3.85,2.82-5.77l-2.82.85c.88-1.76,1.73-3.55,2.58-5.33,1.1-1.2,2.42-1.2.6,2.63,2-1.52,2-6.91,1.58-7.21,4.19-7.2,1,4,2.09,1.7l1.27-3.22-.55.61c.3-2.93-.48-3.54,1.65-8.15,1.68-2.78,1.9-1,2.48-2.11.14.07.38-.3.81-1.77l3.06-6.83-2.75,2.09c.5-3.37,2.78-6.44-.35-4,1.19-.87,2.47-2.9,3.8-5.49a94.29,94.29,0,0,0,3.88-8.86c2.47-6.25,4.46-12.41,5.45-13.69.46-4.77,2-9.07,4-14.35-.82,1.21-2.91,1.36-1.1-3.16,3.2,3,4.6-7.85,8.54-10.71-1.47,1.38-.49-2,.32-5.09s1.36-6.06-.75-3.83c1.53-3.79,1.5.22,3.34-2.44,1.48-9.7,7.26-20.16,10-31.9-.46-.32-1.76,1.4-1.84-1.29l4.21-5.42c.37-2.37-2.39-2.89.46-6.62-.58.48-1.45,1.19-1.22-.39a138.64,138.64,0,0,0,5.07-17.07c1.35-5.76,2.57-11.65,3.75-17.57s2.36-11.88,3.69-17.82,2.79-11.89,4.56-17.93c-1.33,3.24-1.22,1-1-1.53-.4,1.63-1.3-.14-2,.12.51-1.65.9-3.34,1.33-5s.8-3.41,1.15-5.15a4.5,4.5,0,0,1-.87-2.56c-.18-1.16-.24-2.53-.31-3.88a21.22,21.22,0,0,0-.44-3.74c-.23-1-.54-1.8-1-2l.66,3.26c-1.33-2.1-2.41-.4-3.55,1.59s-2.56,4.35-4,4.08a5.68,5.68,0,0,1,.54,3.88,22.73,22.73,0,0,1-.45,2.27c-.24.78-.48,1.58-.73,2.41s-.49,1.68-.68,2.54a19.7,19.7,0,0,0-.52,2.65,14.2,14.2,0,0,0,0,2.77,11.51,11.51,0,0,0,.59,2.9c-.78,1.57-.75-1.52-1.51-.72a7.17,7.17,0,0,1,.71,3.46,21.81,21.81,0,0,1-1,5l-.23-.52a92.39,92.39,0,0,1-3.12,14.5c-1.27,4.34-2.77,8.81-4.72,15.38l1.61-.67a17.11,17.11,0,0,1-2.09,4.59c1.32,3.79,2-8,3.62-4.49-1.85,1.57-3.06,6.64-4.29,11.54s-2.47,9.57-4.4,10.44c-1.14,4.37,1.92-.88.78,3.49l-1.16.94.82,1.39c-.92,2.82-2.36,4-3.12,3.9a17.49,17.49,0,0,0,.43-2.79c-1.93,3.45-2.47,10.52-3.13,11.71l1.67-4c-2.41,12.12-7.79,26.2-9.75,38.08l.91-.66a25,25,0,0,1-2.42,7.95,41.78,41.78,0,0,0-3.18,8.41l0-.39a22.66,22.66,0,0,1-1.54,7.31c.1-2.64-3,4-2.74.56-2.09,9.72-.65,4.94-.55,11.93l-1.57,1c.17,2.44.6,2.8-.88,7.59.54-4.18-2.71,2.39-2.28-2.36-6,8.9-3.33,15.41-8.45,18.54,1.06,5.62,5-7.77,4.59-5,1.78-1.72.65,4.55-.88,7.49-1.3,3.1-5.81,3.78-9,11.55.34-.76.15-.9.48-1.67-1.94,2.59-1.47,6.08-4.17,9.11.86,2.75-2.13,4.53-.21,6.07.9-2.41,1.77-4.85,2.62-7.28-1.16,4.26-.33,9.15-4.55,15.18a16,16,0,0,1,.41-4.42c-1.5,1.64-1.26,3.9-2.84,5.57-1.87-1.54,3.43-8.75,3.69-13.76-1.84,1.65-2.07,8.78-3.45,5.58,1.62,4.45-3.81,7.33-4,13.54l-1.13-.95a14.93,14.93,0,0,1-1.16,4.34l-.33-3.48c-.62,4.79-5.16,7.3-6.34,11.61,4-8.25,2.45-1.08,5.11-4.11-3.38,11.06-6.13,4.24-11.51,15.71.63-1.6,3.8-5.28,3.11-2.6a27,27,0,0,1-4.74,5.49c-3.71,7.55,1.89-.43,1,3.15-2.85,1.7-1.41,3.94-2.77,7.44l-1.27-.7c-5.6,7.85,1.34,3.73-4,10.67l.12-4.2c-.62,1.38-1.18,2.8-1.84,4.15l-.92-1.63c-1.54,4.78-2.62,5.92-5.54,9.75,1.45-.41,1.89,1.93-.33,5.58-2.32,2-.25-2.09-3.42,3,0-1.65-.1-3.46,2.41-5-.26-.48-.06-1.62-.31-2.11-2.42,2.15-4.47,6.41-5.65,8.25a9.23,9.23,0,0,1,1.59-1.77L687,356.43c-1.21.83-1-.32-.72-1.46-.86,1.55-1,3-2.39,5.15a7.18,7.18,0,0,1-.83-1.77,5.83,5.83,0,0,1,.79-3.35c-.57,1.28-1.18,2.54-1.82,3.78l-1.88,3.74c-.74.16-3.62,2.64-3.34,1.51a14.26,14.26,0,0,0-2.16,3.1c-.66,1.21-1.28,2.56-2,3.9a28.91,28.91,0,0,1-5.14,7.69,5.42,5.42,0,0,1-.89,2.16c-.46.55-.93,1.08-1.4,1.59L663.71,384c-1,1-2,1.95-3,3a30.18,30.18,0,0,0-5.33,7.51L651.27,396c-3.14,4.3,5.45-2.17.2,5-3.65,5.17-2.89.57-4.78,1.83-.31.76-.67,1.67-1.12,2.67a29.2,29.2,0,0,1-1.69,3.08,17.25,17.25,0,0,1-5.79,5.73C639.11,412.6,640.36,411.73,641.46,410.32Zm-47.54,45.14c.8-1,2.17-3.38,3.42-3.3C597.26,454.36,595.89,454.46,593.92,455.46Zm-82.68,56.71c.64-.86,2.06-1.3,3.8-1.57A12.18,12.18,0,0,1,511.24,512.17Zm-272.84,24h.16C241,538,240.12,537.32,238.4,536.18Zm-5.22-3.24c-.64-.11-.69.08-.56.39.55-.12,1.8.45,3.16,1.22C235.56,534,235,533.45,233.18,532.94Zm518-271.87-.8.93C751,259.4,751.07,260.23,751.17,261.07Z"/><path class="cls-1" d="M520.43,505.15a1.34,1.34,0,0,1,.86.44C521.62,505.14,521.49,504.89,520.43,505.15Z"/><path class="cls-1" d="M667.35,378.87l.14-.15a.68.68,0,0,0-.09-.32Z"/><path class="cls-1" d="M324.74,549.05a6.6,6.6,0,0,1,2.22,1C327.06,549.73,326.55,549.36,324.74,549.05Z"/><path class="cls-1" d="M203.93,518.66l3.54,1.76a9.69,9.69,0,0,1-2.75-2.26C204.61,518.49,205,519.3,203.93,518.66Z"/><path class="cls-1" d="M181.91,491.67c-.55-.22-.93-.75-1.47-1l-.3.62C182,492.83,183.65,493.44,181.91,491.67Z"/><path class="cls-1" d="M203.6,512.6c.42-1.18-1.8-2.21-4.17-3.56.14.09.27.17.4.27C198.2,510.26,200.92,511.44,203.6,512.6Z"/><path class="cls-1" d="M198.89,508.72a18.89,18.89,0,0,1-2.08-1.4C196.15,507.7,197.57,508,198.89,508.72Z"/><path class="cls-1" d="M226,529.91c-1-.91-1.47,1-1.87.17C222.11,530.74,232.65,532.64,226,529.91Z"/><polygon class="cls-1" points="204.04 508.04 203.99 509.83 205.91 509.68 204.04 508.04"/><path class="cls-1" d="M221.35,520.38l-3.44-2.62c-.08.25-.62.09-1.25-.17C218.89,519,221.21,520.82,221.35,520.38Z"/><path class="cls-1" d="M216.66,517.59a12.26,12.26,0,0,0-3.08-1.61A29.37,29.37,0,0,0,216.66,517.59Z"/><polygon class="cls-1" points="209.12 510.98 210.03 511.91 212.54 513.6 209.12 510.98"/><path class="cls-1" d="M262.8,540.93c1.52.44,3.06.8,4.58,1.2.63-.32-.47-1-2.18-1.44-.59,0-1.32-.12-1.83-.15S262.56,540.56,262.8,540.93Z"/><path class="cls-1" d="M251.38,531.66a4.16,4.16,0,0,1,1.42,1.84l.89-1.65Z"/><path class="cls-1" d="M264,536.5a3.84,3.84,0,0,1,1.23,0c.58,0,1.24.09,1.71.11.94,0,1.1-.14-1.66-1.07C264.67,535.85,260.24,534.45,264,536.5Z"/><polygon class="cls-1" points="331.31 554.87 330.13 554.79 330.01 557.85 331.31 554.87"/><path class="cls-1" d="M392.14,545.93c-2.71,0-3,.5-3.17,1s-.34.92-2.82.74c-1.19.87,4.06.28,2.85,1.05C392.16,547.56,393.9,547.68,392.14,545.93Z"/><path class="cls-1" d="M389,548.71a15.69,15.69,0,0,0-1.61.66A7.7,7.7,0,0,0,389,548.71Z"/><path class="cls-1" d="M809.16,49c.15-1.3.19-2.64.29-4l-.78,2.62C808.85,48.12,809,48.57,809.16,49Z"/><path class="cls-1" d="M806.09,41.85l1.77-1.23c-.72-.69-1.43-1.36-2.14-2C806,39.46,806.42,41.13,806.09,41.85Z"/><path class="cls-1" d="M583.8,458.26l.07.54c.74.07,1.41-.39,2.76-1.32Z"/><polygon class="cls-1" points="620.86 428.85 620.24 429.38 622.56 429.62 620.86 428.85"/><path class="cls-1" d="M646.86,398.79c-1.12,1.16-2.09,2.85-3.21,4C645.73,400,648.79,399.92,646.86,398.79Z"/></svg>