<svg id="corde" xmlns="http://www.w3.org/2000/svg" viewBox="0 0 1130 846"><defs><style>.cls-1{fill:#b38a58;}</style></defs><path class="cls-1" d="M69.63,587.7c-1.39-1.74-1.82-.32-2.21-.42C70.11,589.89,69.81,587.42,69.63,587.7Z"/><path class="cls-1" d="M96.8,612.48l-.82-.1c1.57,1,3.11,2,4.7,2.9C99.36,614.37,98.1,613.41,96.8,612.48Z"/><path class="cls-1" d="M121.89,635.65c-.55-1.83-2.9-3.83-5.64-5.93-1.38-1.05-2.84-2.13-4.22-3.24a23.06,23.06,0,0,1-3.63-3.43l-.39-1-3.18-.62c1.4,1.22,2.93,2.5,4.49,3.78l4.8,3.75A80.63,80.63,0,0,1,121.89,635.65Z"/><path class="cls-1" d="M133,650.88c-.37-1.36,3.55,1.92-3.18-2.88.26.33.32.45.47.65C130.9,649.1,131.7,649.74,133,650.88Z"/><path class="cls-1" d="M130.31,648.65c-2.87-2.22,1.41,2,0,0Z"/><path class="cls-1" d="M143.77,658.61l-4.26-2.29c.49,1,3.82,3.65,2.34,3C146,662,145.49,660.94,143.77,658.61Z"/><path class="cls-1" d="M148.31,660.1l-2.16-1.24C146.37,659.29,146.85,659.74,148.31,660.1Z"/><path class="cls-1" d="M141.58,656.22l4.57,2.64c-.34-.69,0-1.29-2.05-1.26C144.82,657.35,143.63,657.21,141.58,656.22Z"/><path class="cls-1" d="M139.43,654.17c-1.81-2-4.31-4.42-.13-2C132,646.7,132.11,648.7,139.43,654.17Z"/><path class="cls-1" d="M124.66,635.09l-2.29-2.76c-.93-.48-1.84-1-2.76-1.48C121,631.63,124.39,635.74,124.66,635.09Z"/><path class="cls-1" d="M167.24,676.91c.5-.21-.64-1.91-.61-2.59l-3.2-1.56C164.75,674,167.42,676.21,167.24,676.91Z"/><path class="cls-1" d="M166.63,674.32l4.78,2.32C167.59,673.91,166.67,673.74,166.63,674.32Z"/><polygon class="cls-1" points="150.41 658.71 142.55 654.81 151.74 659.69 150.41 658.71"/><path class="cls-1" d="M184,688.06l-3.08-.74c1.78.52,3.55,1,5.35,1.52Z"/><path class="cls-1" d="M195.47,694.93c-2.34-.41,1.83,2.84-.45,2.09a47.25,47.25,0,0,0,9,3.47A32.6,32.6,0,0,1,195.47,694.93Z"/><path class="cls-1" d="M208.57,702c-1.38-.56-2.89-1-4.53-1.52A25.65,25.65,0,0,0,208.57,702Z"/><path class="cls-1" d="M178.75,681.76c.19.46.46,1.49,2.77,3.35l-1-2.2Z"/><path class="cls-1" d="M180.44,682.83l0,.08,3.7,2.49Z"/><path class="cls-1" d="M178.32,681.48l.43.28C178.66,681.55,178.58,681.45,178.32,681.48Z"/><path class="cls-1" d="M160.83,667.73c2.89,1.26,8.65,4.17,4.15-.2C162.68,667,165.21,669.55,160.83,667.73Z"/><path class="cls-1" d="M177.05,678.74q-2.27-1.62-4.47-3.33c-.1.34.46,1.32-1,.75C173.39,677.05,175.21,677.92,177.05,678.74Z"/><polygon class="cls-1" points="179.56 679.88 177.05 678.74 178.72 679.96 179.56 679.88"/><path class="cls-1" d="M200.92,696.13a41.57,41.57,0,0,1,7.27,3.46c-2.62-1.83-5.39-3.62-8.09-5.2C199.51,694.51,198,694.43,200.92,696.13Z"/><path class="cls-1" d="M191,689.67l.5.22C191.24,689.62,191,689.46,191,689.67Z"/><path class="cls-1" d="M233.87,713.67c-.12-.13-.2-.28-.31-.42l-.2.14Z"/><path class="cls-1" d="M199.76,693.91a13.4,13.4,0,0,0-4.69-2.29c1.59.84,3.26,1.76,5,2.77C200.36,694.33,200.45,694.25,199.76,693.91Z"/><path class="cls-1" d="M216,705.49c-1-.84-2.08-1.73-3.28-2.64C213.6,703.8,215.46,705.57,216,705.49Z"/><path class="cls-1" d="M192,690.62l-.33-.14C192.15,691.12,192.14,691,192,690.62Z"/><path class="cls-1" d="M192,690.62a23,23,0,0,0,3.11,1c-1.29-.68-2.51-1.27-3.61-1.73A3.81,3.81,0,0,1,192,690.62Z"/><path class="cls-1" d="M245.48,710.34c-.46.43-2.2.19-4.35-.61a22,22,0,0,1-6.81-4c-5.09-1.7-3.88,3.37-.76,7.51.38-.38.61-.81,5.82,1-.7-.73-3.26-2.42-5-3.84s-2.77-2.52-.49-1.91c6.71,2.81,5.09,3.08,7.94,5.26-2-2.68,9.18,2.25,8.75-.45-2-.68-4-1.44-6-2.15C244.62,710.85,246.9,711.41,245.48,710.34Z"/><path class="cls-1" d="M224.36,708.21l-2.07-.94a39.62,39.62,0,0,1,6.16,5.11c3.6,1.26,4.5,1.24,4.91,1L223.59,708Z"/><path class="cls-1" d="M213.4,702.32c2.19-.26,7.18,1.91,5-.93-5.81-3.16-4.57-1.32-8.31-2.78,9.5,5-3-.88,3.35,3.54a55.14,55.14,0,0,1-5.21-2.56c1.58,1.14,3.13,2.18,4.54,3.26l-.18-.19,0,0h0c-.33-.36-.41-.52,0-.19l.21.09a1.36,1.36,0,0,1,.66-.19c2.58,1.75.26.53-.66.19-.07,0-.17.05-.21.1l0,0,9.74,4.61C220.38,706,217.89,704.66,213.4,702.32Z"/><path class="cls-1" d="M171.26,668.46c.21.28.15.35.12.44C172,669.16,172.31,669.21,171.26,668.46Z"/><path class="cls-1" d="M174.44,671.58a8.75,8.75,0,0,1-3.57-1.76c-1.58-1.56.36-.51.51-.92-1.45-.57-4.92-2.24-1.34,1l.72.28a46,46,0,0,1,4.63,4.64c1.25,1.43,2,2.43,1.65,2.31A15.45,15.45,0,0,0,174.44,671.58Z"/><path class="cls-1" d="M194,687.19c2.64,1.37,5.26,2.79,7.94,4.08-1.11-1.08-2.23-2.16-3.31-3.28l-.15.69C194.32,685.8,194.82,687.08,194,687.19Z"/><polygon class="cls-1" points="234.48 714.71 232.79 715.38 238.29 716.01 234.48 714.71"/><path class="cls-1" d="M244.93,719.83l-.91.87c1,.25,2,.49,3.07.71C246.37,720.89,245.65,720.37,244.93,719.83Z"/><path class="cls-1" d="M821.89,620.26l1.19-2.32A22.76,22.76,0,0,0,821.89,620.26Z"/><path class="cls-1" d="M810.83,635.22l.2.72C811.28,635.05,811.3,634.62,810.83,635.22Z"/><path class="cls-1" d="M518,798.58c1.92.62,4,1.39,5.48,1.84s2.48.47,2.25-.17L524.51,799A25.54,25.54,0,0,1,518,798.58Z"/><path class="cls-1" d="M702.78,742.24l-1.16.2L700,744.78Z"/><path class="cls-1" d="M702.36,736.29c1.59-.53,3.09-1.22,4.63-1.85-.55.17-1.19.41-2,.73S703.4,735.87,702.36,736.29Z"/><path class="cls-1" d="M873.74,532.54l.26-3.29C871.78,533.41,873.35,531.9,873.74,532.54Z"/><path class="cls-1" d="M355.24,764.06a54.21,54.21,0,0,0,7.59,3.27C359.26,765.45,356.57,763.35,355.24,764.06Z"/><path class="cls-1" d="M828.76,634.31c.76-1.44,1-2.15.69-2.28C828.65,633.49,828.29,634.4,828.76,634.31Z"/><path class="cls-1" d="M371.92,770.19c-.52-.3-1.05-.54-1.58-.82a60.38,60.38,0,0,1-7.51-2A21,21,0,0,0,371.92,770.19Z"/><path class="cls-1" d="M1035.37,197.75c.14-.24.28-.53.42-.74C1035.66,196.87,1035.52,197.22,1035.37,197.75Z"/><path class="cls-1" d="M1073.4,95.1c.08,1.12,0,2.93-.09,4.64A23.13,23.13,0,0,0,1073.4,95.1Z"/><path class="cls-1" d="M287.24,739.82c-2.31-.87-.42,0,0,0Z"/><path class="cls-1" d="M278.3,730.36c.53.08,1,.06,1.15-.19A1.62,1.62,0,0,1,278.3,730.36Z"/><path class="cls-1" d="M397.62,769.29l.2.06C397.19,768.91,397.3,769,397.62,769.29Z"/><path class="cls-1" d="M284.05,737.84c.79.51,1.72,1,2.75,1.58C286.37,739.13,285.54,738.64,284.05,737.84Z"/><path class="cls-1" d="M284.27,738.6l-1.94-1C282,737.71,282.15,738,284.27,738.6Z"/><path class="cls-1" d="M290.43,741.09c-1.31-.53-2.5-1.1-3.63-1.67.42.27.57.41.44.4Z"/><path class="cls-1" d="M956.35,380.41c.11-.13.22-.28.35-.41C957.34,377.56,956.92,378.56,956.35,380.41Z"/><path class="cls-1" d="M580.45,780.83c-.1,0-.16.08-.26.11l.36,0Z"/><path class="cls-1" d="M588.73,778.26a13.63,13.63,0,0,1-8.18,2.66l3.44,3.16Z"/><path class="cls-1" d="M846.1,582.75l-4.19,4.58c2.22-7.28,5.55-11.44,1.17-7.45.75.72.38,2.35-.56,4.44a62.27,62.27,0,0,1-4,7.15c-3.13,5-6.25,10-4.79,11.49l-2.9,2.89c.67-.94.56-1.23,1.22-2.16a11.91,11.91,0,0,0-2.73,3.41,8.41,8.41,0,0,0-.68,2.83c-.23,1.93-.49,4.21-3.59,8.19-2.25,2.71-4.12,4.39-3.16,2.14-1.19,2.34-2.51,4.59-3.77,6.9-1.41,1.78-1.65.92-.25-.86l-6.8,9.78,0-.14a64.9,64.9,0,0,1-3,7.1c-2.34,2,.6-1.46-.28-1.17l-3.32,5.8c-2.49,1.44.1-3.48,3-6.95-3.51,1.15-4.15,2.37-5.18,4.43s-2.38,5-7.64,9.25c1.2-1.69,2.43-3.34,3.61-5-4.34,1.59-6.84,5.76-12.44,10.11,1.61-.74,11.83-8.26,8-2.19a22.59,22.59,0,0,0-5.25,6.71c-1.07-.89-3.36,2.08-6.49,5.57l-1.2-1.54c-3,4.08-2,4.46-3.45,7.24a18.32,18.32,0,0,1-2.63,2.28,9.34,9.34,0,0,1-2.09,1.06,8.67,8.67,0,0,1-3.06.4c-6.63,6.09,6.12-2.67-1.24,5.06-1.47,1.19-2.77,2.34-4,3.52-.61.59-1.19,1.19-1.77,1.79l-1.77,1.78c-2.35,2.43-4.69,5.16-7.68,8.58-4.36,3-.08-1.5-1.85-.66-.82,1.42-1.63,2.86-2.54,4.2-.92.68-.93.09-.94-.21-2.69,2.9,1,1.67-3.55,6,0,1.35-3,2.74-6.49,4.61s-7.86,3.86-10.28,7.09c-1.85.65.07-1.49-.83-1.76-3.84,3.67-5.48,5.29-7,6.67s-2.78,2.69-5.87,5.92l-6.9,2.91c2.66-.85,2.77,0,1.64,1.66a28.23,28.23,0,0,1-2.45,2.94c-1,1.05-2.24,2.13-3.4,3.2,2-.37,3.82-.64,4.93-1-2.66,1.94-5.36,3.83-8.05,5.76-1.19.31-.65-.75.35-2.24-.5.47-1,.92-1.34,1.29-3.41,1.11-2.35-.76-.7-2.92,1.22-.26,2.45-.49,3.65-.71,1.52-2.2,2.81-4.41,1.8-5.13a14.5,14.5,0,0,1-2.5,2c.38-.58.59-1,.24-1s-1,.85-2.19,2.05l-3-.77,0,1-5.82,2.53-2.91,1.26c-1,.43-2,.76-3,1.14-3.54,3-6.74,6-10.65,9.29-1,.8-2,1.67-3.09,2.44s-2.29,1.55-3.54,2.34c-2.51,1.58-5.33,3.19-8.59,4.84,2.71-2.88-.28-2.67-.81-4.47,2.18.13,4.67-1.17,7.47-2.82,1.4-.83,2.88-1.74,4.45-2.6a42.23,42.23,0,0,1,4.85-2.59c-3.57,1.55-3.18.36-2.43-.35-.93.61-1.84,1.26-2.78,1.86l-2.86,1.72-5.73,3.45c-.33-1.52-3,.07-6.45.86.89.43.81,1,.12,1.68a8.14,8.14,0,0,1-1.44,1.07,21.36,21.36,0,0,1-2.14,1.06c-3.19,1.43-7.41,3-9.8,4.34-.65-.84.21-2.25,6.48-4.3-3.81.2-5.69,1.83-7.58,3.51a18.55,18.55,0,0,1-3,2.37,7.89,7.89,0,0,1-2,.86,11.19,11.19,0,0,1-2.48.36c1.53-.51,2.42-.59,2.86-1.3-3.31,2-12.36,4-10.54,2.53l1.53-.49c-2.58.7-5.81,1.65-9.22,2.72s-7.11,1.89-10.46,2.92-6.41,2.11-8.72,3-3.86,1.64-4.13,2.34a9.94,9.94,0,0,1,1.29-3.9l-8.58,6-4.37,3c-1.47,1-3,1.88-4.48,2.82,1.33-2.39-5.82-6.67,2.75-9.11a38.1,38.1,0,0,0-10.9,1.58c1.74.08,4.72,2.56,2.38,3.08a36.12,36.12,0,0,0-5.91-1.05l-2.44-.17c-.53,0-1.15-.09-1.89-.18l-2.62-.44c2.63.27.1,3.91-4.06,4.12.6-.56-.62-3.35.84-3.82l-10,4.16c2.53-.81.27-2.89-2-3.66,1.09.7-8.81.15-11.52.56l4.35.68a22.93,22.93,0,0,0-11.47,2.42,23,23,0,0,1-11.54,2.06c1.44-.65,3.57-4.17-2.23-4.79-.68.41-1.79,1.11-3.23,1.94-.73.42-1.53.87-2.42,1.33s-1.83.85-2.85,1.27a43.13,43.13,0,0,1-14.42,3.41l-1.88-1.16h-8c1.32-.46,3.22-1,5.42-1.63,1.11-.32,2.28-.57,3.51-1l3.81-1.14c5.18-1.51,10.56-2.94,14.31-3.67-4.24-1.16-1.11-1.27-7.53-1.75-2.18-1.12,3.6-1.09,5.48-1l-14.8-1.91c.43,2.21-11.57.4-11.26,2.17l8.23.13c.68,0,1.36,0,2.05,0l2-.08,4.11-.16c.23,1-2.25,2.25-6.16,3a45.24,45.24,0,0,1-14.52-.25c-2.58-1.18,2.58-3.25,2.45-4a32.2,32.2,0,0,1-9.2-.43,6.22,6.22,0,0,1-1.88-.56c1.54-.06,3.08-.1,4.62-.19-5.65-1.87-10,.73-16.62-2.55-2.38-.55-6.64-4.18-7.32-3.08,3.42,3.16,2.61,10.29-.44,11.35-.41-.18-3.49-1.47-6.78-2.93a63.37,63.37,0,0,1-8-4.06c-3.56-2.74,7-2.69,4-5-.28.5-2.64.62-3.61.6-2.43-1.08,1.46-1.4-4.12-2.52-1.42,1.76-11.15-3.06-3,1-5.53-.84-5.63-1.87-12-3.46,1.67,1.82-6.84,2.8-12.41,1.88.46-.41-.57-1.41-1.07-1.87-11-3.31-16.59-5.94-26.76-9.11-.79-.77-5.52-2.88-3.16-3.07a20.48,20.48,0,0,1-6.27-.82c-2.74-1.84-1-1.33,1-.81s4.11,1,2.12-.72c-.76,1-8.56-1.09-13.24-1.84.79,2.16,10.15,3.78,14.85,4.43-.75,2.44-9.35,2.49-20.35,0-8.62-2.32-3.11-2.81-4.69-3a58.76,58.76,0,0,0-9.1-2.71,42.4,42.4,0,0,0-5.76-.67c-3.34-.2-6.29-.5-12.46-3.84-4.58-3.47.92-3.08.19-4.6,7,2,10,4.92,14.66,6.51l-5.41-2.78a31.78,31.78,0,0,1,9.33,2.88c-1.91-1.47-8.52-3.88-16-6.85l-5.75-2.25L305,737.66a111,111,0,0,1-10.11-4.78c-2.31-.38-6.17-1.39-4.7-.07l3.84,1.36c3,2.65-7.76-1.3-3.24,1.25-5.42-1.23-11.62-2.42-18.39-6.2l-.56-2.27c-.09.58,4.16,3,6.37,3.4-1.64-.28-4.11-2-6.65-3.64s-5.19-3.11-7.3-2.75l4.38,3.42c-2.69-.73-5.79-1.37-9-2.25a40.22,40.22,0,0,1-9.36-3.86c2,3,1.51.5,5,4.54-1.34-2.13,2.59-.14,6.29,1.55s7.11,3.28,4.6.59c3.51,4.37,7.45,4.54,12.61,9.09.06-.63-1.66-2,3.5.6a9.15,9.15,0,0,1,1.38,0l.34.19-.27-.18c.27,0,.3,0-.1-.07a8.65,8.65,0,0,1-2.32-2c3.15-.1,11.59,3.42,14.71,4,3,1.58-1.58.1-.11,1.41l4.69.73c-.08,1.41,7.6,5.44-.17,3.19l6.71,2.74A48,48,0,0,0,319.88,753c3.11,1.48,8.63,1.56,5.47,1.54,3.66,1,7.3,2.1,11,3.06v.35c5.27,1.92,10.89,3.31,16.65,4.88a85.52,85.52,0,0,1,17.37,6.56,87,87,0,0,1,13.5,3.68l.85,1.47c4.77.94,13.68,5.15,16,4.48,4.21,4.46,22.57,6.74,30.72,9.25l.67-1.41c2.83.76,5.65,1.31,8.66,1.85s6.17,1,9.88,1.44l-.16-1.4c6.43.1,15.73,4.38,25.75,5.45-.74.41-3.25-.08-5-.65a36,36,0,0,0,9,2.28c1.54.2,3.1.34,4.66.44s3.13,0,4.69,0c3.12,0,6.2-.13,9.16,0,1.48.07,2.93.19,4.34.38.71.1,1.41.23,2.1.36s1.38.24,2,.4a17.57,17.57,0,0,1,6.57.24,2.77,2.77,0,0,0-.67.05l1.11,0c1.19.27,2.42.58,3.75.84a22.83,22.83,0,0,0-3.15-.83c2.09,0,5.27,0,8.37-.25l1.32,1.47.72-.05c3.06.46,2.45-.74.83-1.79a28.93,28.93,0,0,0,4.09-1c2.52,2.27,8.09-1,11.56,1.44,1-.56,4.9-1.12,8.7-1.81s7.52-1.55,8.22-2.88c.13.32,1,.41-.61.56a48.4,48.4,0,0,0,5.13-.13,20.3,20.3,0,0,0,4.75-1.08l1.68,1.62,7.11-3.44c4.67.5,6.68.89,2.39,2.89,2.65-.85,4.48-1.59,5.91-2.07s2.46-.79,3.43-1.08a55.77,55.77,0,0,0,8-3l-.2,1.25a33.59,33.59,0,0,0,5.54-1.88c1.88-.75,3.61-1.34,4.7-1.11a42.71,42.71,0,0,0,9.17-1.21l3.17-.69c1.1-.27,2.22-.62,3.38-1l7.36-2.2,7.88-2.37,7.93-2.75c2.64-.89,5.26-1.75,7.8-2.53,1.27-.4,2.55-.72,3.75-1.13s2.39-.8,3.54-1.15c-4.77-1.75,8.8-2.09,8.43-4.88,1.35.31,4-.33,1.44,1.56,4.38-2.23,7.77-3.66,10.81-5a24.67,24.67,0,0,0,8.14-5.21c1.39.24-1.33,2-.21,2,.63-.51,2.47-2,3.61-2s-1,1.25-2.19,2.27c1.12-.58,2.09-1.12,2.94-1.64a25.49,25.49,0,0,0,2.11-1.61,10.65,10.65,0,0,0,2.4-2.71,5.17,5.17,0,0,0,.44-4.13c4.93-1.49,7.07-2.89,9.42-6,1-.1,2.14-.41,2.47-.21.16.1.11.31-.3.73a9.87,9.87,0,0,1-.91.78c-.42.29-.94.64-1.6,1l1.71-.87,2.49-1.45c1.87-1.09,4.08-2.4,6.17-3.72,4.17-2.62,7.88-5.25,7.49-6.14,1.19-.18,4-2.69,4.67-3.39,6.4-4.45,7.1-4.66,13.18-9.33-.61.38-1.26.7-1.89,1a7.52,7.52,0,0,1,3.31-4,57.9,57.9,0,0,0,6-4.35v.3a69.3,69.3,0,0,0,6-4,17.51,17.51,0,0,0,2.12-2.08c1-1.13,2-2.21,7.88-6.15l-1.53-.56c-.28-.79.23-1.61,1.24-2.5s2.53-1.81,4.14-3c3.28-2.25,7.36-4.94,9.83-8.2l-2.67,1.47a8.41,8.41,0,0,1,2.91-2.56c.64-.38,1.33-.74,2.06-1.08s1.45-.73,2.2-1.09c3-1.41,6.15-2.73,7.82-4.24.86-.53-.73,1.43-1.52,2.56,9.33-7.36-.34-2.4,5.25-9.07,1.83-.52.59,3.3,4.56-1,1.26-.85,3.42-4.64,6.07-8.79s5.6-8.84,8.87-11.35c-1.71.9-3.4,1.77-1.37-1.75a36.36,36.36,0,0,1,3.53-4l2.15-2.11,2.13-2.24c2.8-3,5.35-6.16,6-9.12.64-.51,1-.63,1.16-.54.56-1,1.38-2.37,2.24-3.84l2.64-4.69c1.75-3.16,3.29-6.17,3.54-7.71,1.63-.2,3.43-1.86,5.08-4.3a83.43,83.43,0,0,0,4.88-8.56c1.55-3,3.08-5.88,4.33-7.9s2.41-3.11,3.37-2.49l7.35-12.46.21.56c4.93-7.82,5.63-11.2,6.31-14.55,1.35-1.68.94-.13,1.05.15a97.28,97.28,0,0,0,7.2-11.89,77.93,77.93,0,0,0,4.17-11.67l1.87-.32c.34-1.56,3.16-5.57,6.49-10.75a99,99,0,0,0,9.28-17.89c.09.2.23.57-.07,1.6,2.6-7,7.54-14.48,11.49-21.13s6.93-12.49,5.7-16.1l3.13-9.34c-6,11.13-1.28-2.72-4.39,1.53,1.92-4.6,7.16-10.79,4.71-5.19l-.67.74c.77,1.63,2.72-1.78,4.7-5.44s4-7.57,4.78-7c11-22.25,23.6-43,34.38-63.73L960,391.06l3.83-7.18c1.43-1.66,2.83-1.76.1,3.36,2.5-2.15,3.52-9.13,3.18-9.5,6-9.71.25,5.12,1.88,2l2-4.29-.71.84c.95-3.83.26-4.57,3.52-10.73,2.4-3.74,2.24-1.41,3.11-2.92.13.08.47-.4,1.26-2.35l4.79-9.08-3.4,2.89c1.29-4.45,4.42-8.57.54-5.23,2.94-2.41,7.43-10.86,11.53-19.14s7.7-16.43,9.07-18.14c1.61-6.3,4.27-12,7.74-19-1.17,1.6-3.38,1.85-.38-4.16,2.63,3.91,6.7-10.47,11.54-14.27-3.69,3.68,7.22-17.75,1.67-11.84,2.54-5,1.52.29,4.09-3.25,1.89-6.47,4.94-13.18,8.25-20.22,1.6-3.55,3.26-7.18,4.88-10.9q1.21-2.79,2.37-5.64c.73-1.92,1.43-3.87,2.09-5.83-.41-.43-2.13,1.88-1.63-1.72l5.51-7.29c.89-3.17-1.81-3.85,1.9-8.85-.7.65-1.75,1.61-1.18-.51,6.62-14.81,11.42-30.77,15.52-47,2.07-8.11,3.93-16.29,5.79-24.5s3.63-16.47,5.45-24.89c-1.41,4.51-1.2,1.45-1-2.06-.36,2.27-1.3-.13-2,.28a128.59,128.59,0,0,0,2.09-14.21c-1-1.26-1.3-5.09-1.87-8.79-.15-.93-.29-1.84-.43-2.71s-.38-1.67-.59-2.38a10.38,10.38,0,0,0-.66-1.78,2,2,0,0,0-.8-.9l.37,1.09.31,1.1.62,2.22c-1.72-2.78-2.44-.4-3.33,2.41s-2,6.12-3.47,5.84c1.59,3,.84,7.24,0,11.84s-1.86,9.61-.65,15c-.83,2.21-.72-2-1.51-.89,1,2.72.81,5.94-.68,11.68l-.18-.71a132.55,132.55,0,0,1-4.53,19.92c-1.81,5.95-3.93,12.07-7,20.94l1.76-.93a30.1,30.1,0,0,1-2.91,6.2c.34,2.53,1.22-.17,2.11-2.92s1.79-5.55,2.34-3.18c-2.13,2.17-4.2,9-6.42,15.53s-4.53,12.87-6.68,14.05c-2.08,5.88,2.17-1.19.08,4.7l-1.4,1.27.56,1.87c-1.55,3.82-3.32,5.37-4.08,5.26a31.57,31.57,0,0,0,1.07-3.75c-2.79,4.64-4.83,14.13-5.78,15.73l2.59-5.43c-.64,2-1.33,4.11-2,6.22s-1.49,4.24-2.33,6.38l-5.08,13c-1.71,4.37-3.51,8.68-5.08,12.93-.8,2.13-1.56,4.23-2.26,6.29s-1.42,4.08-2,6.06l1.11-.88c-3.91,12-4.62,9-9.83,21.79l.06-.52a42,42,0,0,1-3.39,9.72c.77-3.49-4.18,5.3-3,.79-4.6,12.92-1.92,6.55-3.51,15.79l-1.91,1.4c-.43,3.21-.06,3.67-2.82,10,1.61-5.53-3.44,3.23-1.82-3a51.36,51.36,0,0,0-4.8,8.33c-1.19,2.54-2,4.85-2.8,6.93-1.53,4.16-2.75,7.38-5.82,9.56-.21,7.35,7.12-10.49,6-6.85,2.29-2.36-.37,6-2.69,9.9-2.16,4.12-7.06,5.29-12.28,15.72.54-1,.37-1.2.91-2.23-2.69,3.54-2.95,8.11-6.52,12.3.29,3.53-3.26,6.15-1.54,8l4.38-9.79c-2.2,5.69-2.33,12-8.11,20.32a26.71,26.71,0,0,1,1.36-5.83c-2,2.28-2.17,5.22-4.19,7.59-1.73-1.86,5.5-11.81,6.85-18.43-2.31,2.34-4.1,11.73-4.89,7.65.76,5.68-5.62,10-7,18.22l-1-1.11a31,31,0,0,1-2,5.86l.27-4.56c-1.54,6.42-6.89,10.35-8.94,16.22,5.85-11.48,2.85-1.79,6.26-6.15-5.56,15-7.5,6.4-15,22.57.91-2.24,4.87-7.68,3.74-4-1.8,2.89-4.32,6.62-5.93,8.14-5.1,10.64,2.13-.95.63,3.92-3.38,2.79-2,5.48-3.83,10.35l-1.31-.62c-6.86,11.6,1.07,4.52-5.33,14.85l.49-5.48-2.35,5.89-.9-1.9c-2,6.7-3.18,8.48-6.58,14.31,1.61-.95,2,1.94-.62,7.28-2.56,3.24-.23-2.64-3.76,5,0-2.1-.07-4.46,2.74-7.15-.26-.55,0-2.08-.23-2.63-2.82,3.46-5,9.7-6.38,12.43a17.28,17.28,0,0,1,1.76-2.79c-1.19,3.94-2.42,7.86-3.66,11.78-1.35,1.46-1.05-.09-.76-1.63-1,2.27-1.14,4.1-2.67,7.39-.62-1.37-1.81-1.72,0-6.54l-4.06,10.92c-.82.46-4,4.63-3.69,3.1-3.56,5.36-5.2,15-10.08,22.06a9.89,9.89,0,0,1-.94,3.05c-1,1.73-2,3.37-3.1,5s-2.14,3.22-3.19,4.9a57.76,57.76,0,0,0-5.68,11.49l-4.52,3.58c-3.32,6.62,6-4.94.43,6.11-3.83,7.88-3.2,1.9-5.25,4.24-1.25,4.28-3.43,11.8-9.06,17.74C843.58,586.55,844.93,584.94,846.1,582.75ZM794,657.15c.92-1.53,2.47-4.79,4-5.22C797.89,654.51,796.27,655.19,794,657.15Zm-104.27,89.3c.91-1.07,2.79-1.86,5.06-2.51A23.17,23.17,0,0,1,689.69,746.45Zm-377,2.37h.21C316.47,750.78,315.22,750.07,312.72,748.82Zm-7.52-3.61c-.86-.12-.88.09-.62.41.67-.13,2.42.55,4.36,1.43C308.52,746.48,307.62,745.83,305.2,745.21ZM976.9,361.62l-1.07,1.27C977.11,359.46,977,360.54,976.9,361.62Z"/><path class="cls-1" d="M702.36,737a1.41,1.41,0,0,1,1.06.31C703.9,736.76,703.77,736.51,702.36,737Z"/><path class="cls-1" d="M873.69,533.14l.15-.23a.58.58,0,0,0-.1-.37Z"/><path class="cls-1" d="M430.83,772.14a11.92,11.92,0,0,1,3,1.51C434,773.33,433.32,772.85,430.83,772.14Z"/><path class="cls-1" d="M263.61,730.1l5,1.9a17.92,17.92,0,0,1-4.17-2.45C264.41,729.91,265.14,730.78,263.61,730.1Z"/><path class="cls-1" d="M226.31,701.43c-.76-.21-1.46-.75-2.2-1l-.14.69C226.89,702.69,229.18,703.28,226.31,701.43Z"/><path class="cls-1" d="M261.15,723.67c.13-1.26-3-2.33-6.5-3.75a5.39,5.39,0,0,1,.59.29C253.52,721.25,257.33,722.51,261.15,723.67Z"/><path class="cls-1" d="M253.86,719.58c-1.06-.45-2.13-.93-3.12-1.47C250.05,718.53,251.94,718.84,253.86,719.58Z"/><path class="cls-1" d="M295.09,742c-1.51-1-1.62,1-2.36.16-1.2.33,1.7,1.06,3.76,1.28S299.74,743.48,295.09,742Z"/><path class="cls-1" d="M260.14,718.76l.56,1.94,2.4-.23C262.11,719.91,261.12,719.35,260.14,718.76Z"/><path class="cls-1" d="M286.38,731.8l-5.27-2.75c0,.27-.77.1-1.66-.17C282.78,730.39,286.32,732.29,286.38,731.8Z"/><path class="cls-1" d="M279.45,728.88a23.56,23.56,0,0,0-4.47-1.69C275.93,727.59,278,728.43,279.45,728.88Z"/><polygon class="cls-1" points="267.67 721.76 269.13 722.78 272.88 724.63 267.67 721.76"/><path class="cls-1" d="M345.79,754.86c2.08.59,4.17,1.13,6.27,1.66.79-.28-.79-1.13-3.14-1.69C347.35,754.67,345,754.07,345.79,754.86Z"/><path class="cls-1" d="M328.76,744.47a6.8,6.8,0,0,1,2.28,2l.82-1.69Z"/><path class="cls-1" d="M346.6,750.33c.78-.26,9.31,1.62,1.56-.91C347.38,749.7,341.15,748,346.6,750.33Z"/><polygon class="cls-1" points="439.3 779.47 437.7 779.11 437.21 782.14 439.3 779.47"/><path class="cls-1" d="M524.07,783.2c-7.46-1-1.81,1.82-8.56.69-1.78.66,5.53.92,3.71,1.49,2.27-.31,4-.33,4.9-.54S525.1,784.21,524.07,783.2Z"/><path class="cls-1" d="M519.22,785.38q-1.1.14-2.34.39A14.91,14.91,0,0,0,519.22,785.38Z"/><path class="cls-1" d="M1074,75.89c0-1.8-.17-3.62-.33-5.45-.1,1.22-.2,2.43-.33,3.63Z"/><path class="cls-1" d="M1069.64,66.32c.53-.59,1-1.18,1.48-1.78-.9-.88-1.8-1.73-2.69-2.55C1068.88,63.11,1069.81,65.31,1069.64,66.32Z"/><path class="cls-1" d="M782.19,664.66l.09.59c.89-.21,1.68-1,3.28-2.61Z"/><polygon class="cls-1" points="823.81 614.12 823.13 615.03 825.78 614.29 823.81 614.12"/><path class="cls-1" d="M851.61,566.28c-1.21,1.91-2.2,4.41-3.42,6.33C850.41,568.2,853.81,566.87,851.61,566.28Z"/></svg>